<?xml version="1.0" encoding="utf-8"?>
<!-- Generated by IcoMoon.io -->
<!DOCTYPE svg PUBLIC "-//W3C//DTD SVG 1.1//EN" "http://www.w3.org/Graphics/SVG/1.1/DTD/svg11.dtd">
<svg version="1.1" xmlns="http://www.w3.org/2000/svg" xmlns:xlink="http://www.w3.org/1999/xlink" width="32" height="32" viewBox="0 0 32 32">
<path fill="#444444" d="M7.92 1.94c-0.206 0.010-0.437 0.071-0.64 0.3-0.271 0.305-0.253 0.738-0.14 1.040 0.070 0.187 0.352 0.842 0.76 1.84s0.92 2.292 1.44 3.56c0.858 2.090 1.43 3.464 1.7 4.12h-6.8c-0.25-0.48-1.418-2.734-1.66-3.2-0.137-0.265-0.384-0.456-0.62-0.54s-0.452-0.095-0.66-0.1h-0.46c-0.040 0-0.264-0.028-0.52 0.16s-0.32 0.535-0.3 0.76c0.015 0.163 0.023 0.227 0.060 0.42s0.1 0.442 0.16 0.74c0.121 0.595 0.263 1.366 0.42 2.12 0.302 1.449 0.597 2.75 0.62 2.86-0.052 0.254-1.206 5.763-1.26 6.020-0.053 0.249 0.055 0.644 0.28 0.82s0.42 0.18 0.54 0.18h0.44c0.325-0.003 0.524 0.020 0.82-0.12 0.148-0.070 0.29-0.198 0.36-0.3s0.092-0.167 0.12-0.22c0.242-0.466 1.41-2.72 1.66-3.2h6.8c-0.27 0.656-0.842 2.030-1.7 4.12-0.52 1.268-1.032 2.562-1.44 3.56s-0.69 1.653-0.76 1.84c-0.113 0.302-0.132 0.734 0.14 1.040s0.604 0.321 0.84 0.3c0.244-0.021 0.943-0.098 1.5-0.16 0.64-0.071 1.049-0.548 1.14-0.66 0.052-0.065 0.171-0.208 0.4-0.5s0.539-0.694 0.92-1.18c0.762-0.971 1.78-2.245 2.78-3.52 1.906-2.431 3.628-4.621 3.8-4.84h9.34c1.377 0 2.396-0.571 3.040-1.24 0.322-0.335 0.563-0.689 0.72-1.020s0.24-0.62 0.24-0.94c0-0.322-0.102-0.609-0.26-0.94s-0.378-0.686-0.7-1.020c-0.645-0.668-1.688-1.24-3.060-1.24h-9.32c-0.172-0.219-1.894-2.409-3.8-4.84-0.999-1.275-2.018-2.549-2.78-3.52-0.381-0.486-0.691-0.888-0.92-1.18s-0.348-0.435-0.4-0.5c-0.091-0.112-0.5-0.589-1.14-0.66-0.557-0.062-1.256-0.139-1.5-0.16-0.059-0.005-0.131-0.003-0.2 0zM8.52 3.26c0.314 0.030 0.608 0.061 0.96 0.1 0.247 0.027 0.144 0.023 0.28 0.2h0.020c-0.020-0.025 0.151 0.188 0.38 0.48s0.539 0.694 0.92 1.18c0.762 0.971 1.761 2.265 2.76 3.54 1.999 2.55 3.98 5.080 3.98 5.080l0.2 0.24h9.96c1.028 0 1.7 0.404 2.14 0.86 0.22 0.228 0.381 0.472 0.48 0.68s0.12 0.392 0.12 0.38c0-0.010-0.022 0.173-0.12 0.38s-0.261 0.452-0.48 0.68c-0.438 0.456-1.087 0.86-2.12 0.86h-9.98l-0.2 0.24c0 0-1.981 2.53-3.98 5.080-1 1.275-1.998 2.569-2.76 3.54-0.381 0.486-0.691 0.888-0.92 1.18s-0.4 0.505-0.38 0.48l-0.020 0.020c-0.117 0.159-0.041 0.153-0.28 0.18-0.352 0.039-0.646 0.070-0.96 0.1 0.113-0.281 0.251-0.624 0.56-1.38 0.407-0.997 0.94-2.272 1.46-3.54 1.041-2.535 2.060-5.020 2.060-5.020l0.36-0.88h-9.48l-0.18 0.34c0 0-1.524 2.931-1.82 3.5-0.003-0.002-0.044-0.004-0.080 0 0.231-1.121 1.14-5.64 1.14-5.64l0.040-0.12-0.040-0.14c0 0-0.306-1.454-0.62-2.96-0.157-0.753-0.32-1.529-0.44-2.12-0.045-0.221-0.068-0.377-0.1-0.54 0.037 0.005 0.085 0.017 0.1 0.020 0.305 0.588 1.82 3.48 1.82 3.48l0.18 0.34h9.48l-0.36-0.88c0 0-1.019-2.485-2.060-5.020-0.52-1.268-1.053-2.543-1.46-3.54-0.309-0.756-0.447-1.099-0.56-1.38z"></path>
</svg>
