<?xml version="1.0" encoding="utf-8"?>
<!-- Generated by IcoMoon.io -->
<!DOCTYPE svg PUBLIC "-//W3C//DTD SVG 1.1//EN" "http://www.w3.org/Graphics/SVG/1.1/DTD/svg11.dtd">
<svg version="1.1" xmlns="http://www.w3.org/2000/svg" xmlns:xlink="http://www.w3.org/1999/xlink" width="32" height="32" viewBox="0 0 32 32">
<path fill="#444444" d="M27.34 0.54l-0.62 0.16-5.74 1.54c-0.034 0.008-0.066 0.011-0.1 0.020l-20.74 5.56 0.16 0.62 3.54 13.1v7.9h28.16v-16.64h-1.36l-3.14-11.66-0.16-0.6zM26.42 2.1l0.72 2.7c-0.133-0.032-0.269-0.079-0.4-0.1-0.404-0.066-0.788-0.102-1.1-0.14s-0.554-0.105-0.58-0.12c-0.025-0.014-0.197-0.183-0.4-0.44s-0.462-0.584-0.78-0.9c-0.080-0.079-0.168-0.165-0.26-0.24l2.8-0.76zM21.8 3.42c0.509-0.001 0.83 0.232 1.18 0.58 0.234 0.232 0.443 0.526 0.66 0.8s0.421 0.553 0.78 0.76c0.357 0.206 0.703 0.236 1.060 0.28s0.731 0.066 1.060 0.12c0.329 0.054 0.603 0.137 0.78 0.24 0.155 0.090 0.245 0.171 0.3 0.32l1.68 6.28h-7.6c0.024-0.68-0.052-1.381-0.24-2.080-0.677-2.527-2.664-4.368-4.92-4.78-0.752-0.137-1.523-0.108-2.3 0.1-2.831 0.759-4.508 3.695-4.1 6.76h-6.3v3.84l-0.94-3.5c-0.021-0.143-0.005-0.252 0.080-0.4 0.102-0.178 0.302-0.409 0.56-0.62s0.573-0.403 0.86-0.62c0.287-0.217 0.554-0.423 0.76-0.78h0.020c0.206-0.358 0.229-0.694 0.28-1.040s0.094-0.702 0.18-1.020c0.172-0.635 0.399-1.084 1.28-1.32l14.3-3.84c0.22-0.059 0.41-0.080 0.58-0.080zM15.44 7.12c2.078-0.068 4.129 1.511 4.78 3.94 0.158 0.589 0.225 1.175 0.2 1.74h-8.98c-0.422-2.565 0.929-4.953 3.12-5.54 0.294-0.079 0.583-0.13 0.88-0.14zM24.94 7.88c-1.23 0-2.24 1.010-2.24 2.24s1.010 2.24 2.24 2.24c1.23 0 2.24-1.010 2.24-2.24s-1.010-2.24-2.24-2.24zM4.5 8c-0.042 0.111-0.071 0.212-0.1 0.32-0.117 0.433-0.152 0.836-0.2 1.16s-0.126 0.575-0.14 0.6c-0.015 0.026-0.189 0.211-0.44 0.4s-0.563 0.401-0.88 0.66c-0.108 0.088-0.216 0.179-0.32 0.28l-0.72-2.68 2.8-0.74zM24.94 9.16c0.538 0 0.96 0.422 0.96 0.96s-0.422 0.96-0.96 0.96c-0.538 0-0.96-0.422-0.96-0.96s0.422-0.96 0.96-0.96zM5.12 14.080h2.9c-0.070 0.096-0.124 0.203-0.18 0.3-0.225 0.387-0.39 0.78-0.52 1.080s-0.26 0.5-0.28 0.52c-0.022 0.022-0.228 0.162-0.52 0.28s-0.647 0.252-1.020 0.42c-0.126 0.057-0.251 0.131-0.38 0.2v-2.8zM10.52 14.080h14.8c0.912 0 1.249 0.371 1.58 0.94 0.166 0.285 0.301 0.619 0.44 0.94s0.247 0.647 0.54 0.94c0.291 0.291 0.626 0.405 0.96 0.54s0.676 0.263 0.98 0.4c0.304 0.137 0.555 0.294 0.7 0.44s0.2 0.235 0.2 0.44v6.4c0 0.090-0.007 0.106-0.080 0.18s-0.239 0.169-0.44 0.26c-0.201 0.091-0.422 0.184-0.66 0.28s-0.496 0.177-0.74 0.42c-0.245 0.245-0.322 0.474-0.42 0.7s-0.194 0.458-0.3 0.64c-0.212 0.364-0.355 0.56-0.92 0.56h-18.48c-0.566 0-0.708-0.196-0.92-0.56-0.106-0.182-0.202-0.414-0.3-0.64s-0.175-0.455-0.42-0.7c-0.244-0.244-0.502-0.324-0.74-0.42s-0.459-0.189-0.66-0.28c-0.201-0.091-0.367-0.186-0.44-0.26s-0.080-0.090-0.080-0.18v-3.68h0.020l-0.020-0.080v-2.64c0-0.205 0.055-0.294 0.2-0.44s0.396-0.303 0.7-0.44c0.304-0.137 0.647-0.265 0.98-0.4s0.669-0.249 0.96-0.54c0.293-0.293 0.401-0.619 0.54-0.94s0.274-0.655 0.44-0.94c0.331-0.569 0.668-0.94 1.58-0.94zM27.82 14.080h2.9v2.8c-0.126-0.069-0.254-0.143-0.38-0.2-0.373-0.169-0.728-0.302-1.020-0.42s-0.498-0.259-0.52-0.28c-0.020-0.020-0.15-0.22-0.28-0.52s-0.295-0.693-0.52-1.080c-0.056-0.097-0.11-0.204-0.18-0.3zM17.92 14.72c-3.217 0-5.76 2.911-5.76 6.4s2.543 6.4 5.76 6.4c3.217 0 5.76-2.911 5.76-6.4s-2.543-6.4-5.76-6.4zM17.92 16c2.439 0 4.48 2.246 4.48 5.12s-2.041 5.12-4.48 5.12c-2.439 0-4.48-2.246-4.48-5.12s2.041-5.12 4.48-5.12zM8.64 19.2c-1.23 0-2.24 1.010-2.24 2.24s1.010 2.24 2.24 2.24c1.23 0 2.24-1.010 2.24-2.24s-1.010-2.24-2.24-2.24zM27.2 19.2c-1.23 0-2.24 1.010-2.24 2.24s1.010 2.24 2.24 2.24c1.23 0 2.24-1.010 2.24-2.24s-1.010-2.24-2.24-2.24zM8.64 20.48c0.538 0 0.96 0.422 0.96 0.96s-0.422 0.96-0.96 0.96c-0.538 0-0.96-0.422-0.96-0.96s0.422-0.96 0.96-0.96zM27.2 20.48c0.538 0 0.96 0.422 0.96 0.96s-0.422 0.96-0.96 0.96c-0.538 0-0.96-0.422-0.96-0.96s0.422-0.96 0.96-0.96zM5.12 26.74c0.263 0.117 0.509 0.203 0.7 0.28 0.196 0.079 0.327 0.167 0.3 0.14s0.071 0.114 0.16 0.32c0.080 0.185 0.181 0.427 0.32 0.68h-1.48v-1.42zM30.72 26.74v1.42h-1.48c0.139-0.253 0.24-0.495 0.32-0.68 0.089-0.206 0.187-0.347 0.16-0.32-0.026 0.026 0.104-0.061 0.3-0.14 0.192-0.077 0.437-0.163 0.7-0.28z"></path>
</svg>
