<?xml version="1.0" encoding="utf-8"?>
<!-- Generated by IcoMoon.io -->
<!DOCTYPE svg PUBLIC "-//W3C//DTD SVG 1.1//EN" "http://www.w3.org/Graphics/SVG/1.1/DTD/svg11.dtd">
<svg version="1.1" xmlns="http://www.w3.org/2000/svg" xmlns:xlink="http://www.w3.org/1999/xlink" width="32" height="32" viewBox="0 0 32 32">
<path fill="#444444" d="M13.44 0c-2.113 0-3.84 1.727-3.84 3.84s1.727 3.84 3.84 3.84c2.113 0 3.84-1.727 3.84-3.84s-1.727-3.84-3.84-3.84zM28.040 0.020c-0.953 0.029-1.91 0.39-2.64 1.12l-7.62 7.62c-1.423 1.423-3.429 4.157-5.54 6.98s-4.316 5.725-5.92 7.36v0.020l-3.82 3.82c-0.657-0.267-1.389-0.271-1.92 0.26-0.707 0.707-0.707 1.853 0 2.56l1.72 1.74c0.707 0.707 1.853 0.707 2.56 0 0.531-0.531 0.527-1.283 0.26-1.94l3.84-3.82c0-0.003 0-0.006 0-0.010s-0-0.007-0-0.011c1.597-1.627 4.51-3.841 7.34-5.959s5.575-4.115 7-5.54l7.48-7.5c1.353-1.353 1.668-3.493 0.52-5.1 0-0.003 0-0.006 0-0.010s-0-0.007-0-0.011c-0.717-0.981-1.773-1.501-2.86-1.579-0.136-0.010-0.264-0.004-0.4 0zM28.34 1.26c0.721 0.050 1.421 0.417 1.92 1.1 0.772 1.081 0.571 2.509-0.38 3.46l-7.48 7.48c-1.263 1.263-4.026 3.318-6.86 5.44-2.829 2.118-5.728 4.337-7.46 6.1h-0.020l-3.62 3.6-0.82-0.82 3.62-3.62c1.724-1.757 3.907-4.675 6.020-7.5s4.175-5.575 5.44-6.84l7.6-7.6c0.574-0.574 1.319-0.85 2.040-0.8zM12.92 1.34c0.006-0.001 0.014 0.001 0.020 0-0.197 0.388-0.465 0.785-0.84 1.16s-0.772 0.643-1.16 0.84c0.197-1.012 0.971-1.795 1.98-2zM14.3 1.44c0.736 0.261 1.311 0.838 1.56 1.58-0.687 0.245-1.372 0.652-1.98 1.26-0.593 0.593-1.034 1.26-1.3 1.96-0.723-0.256-1.284-0.817-1.54-1.54 0.7-0.266 1.367-0.707 1.96-1.3s1.034-1.26 1.3-1.96zM15.94 4.38c-0.211 1-0.994 1.764-2 1.96 0.197-0.388 0.465-0.785 0.84-1.16 0.371-0.371 0.764-0.618 1.16-0.8zM1.86 27.96c0.143 0 0.285 0.045 0.38 0.14-0.031-0.019 0.054 0.063 0.157 0.118-0.064-0.025-0.004 0.002 0.059 0.021l1.345 1.341c-0.034-0.063 0.005 0.026 0.061 0.102-0.030-0.039 0.024 0.059 0.099 0.139 0.189 0.189 0.189 0.57-0 0.76s-0.571 0.189-0.76 0l-1.72-1.72c-0.189-0.189-0.189-0.571 0-0.76 0.095-0.095 0.237-0.14 0.38-0.14z"></path>
</svg>
