<?xml version="1.0" encoding="utf-8"?>
<!-- Generated by IcoMoon.io -->
<!DOCTYPE svg PUBLIC "-//W3C//DTD SVG 1.1//EN" "http://www.w3.org/Graphics/SVG/1.1/DTD/svg11.dtd">
<svg version="1.1" xmlns="http://www.w3.org/2000/svg" xmlns:xlink="http://www.w3.org/1999/xlink" width="32" height="32" viewBox="0 0 32 32">
<path fill="#444444" d="M26.609 4.037c-0.003-0.004-0.003-0.009-0.005-0.013-0.070-0.112-0.172-0.184-0.284-0.237-2.788-2.36-6.39-3.787-10.32-3.787-8.822 0-16 7.178-16 16s7.178 16 16 16 16-7.178 16-16c0-4.755-2.088-9.030-5.391-11.963zM30.6 14.155c-0.014 0.011-0.031 0.015-0.045 0.027-0.038 0.034-3.418 3.005-11.298 3.683-0.406-6.986 5.179-11.532 6.738-12.659 2.477 2.296 4.163 5.43 4.605 8.948zM16.514 30.707c-0.1-0.133-3.009-4.078-3.702-11.509 0.995 0.079 2.053 0.125 3.188 0.125 0.725 0 1.42-0.019 2.089-0.053 0.845 4.938 5.173 7.37 7.096 8.22-2.395 1.918-5.398 3.103-8.671 3.217zM12.66 16c0-9.536 4.21-14.529 4.253-14.579 0.028-0.032 0.040-0.070 0.060-0.106 2.991 0.196 5.74 1.289 7.982 3.013-2.035 1.508-7.464 6.254-7.012 13.628-0.623 0.031-1.268 0.049-1.943 0.049-1.18 0-2.268-0.055-3.288-0.144-0.033-0.602-0.052-1.22-0.052-1.862zM15.362 1.296c-1.221 1.759-4.019 6.663-4.019 14.704 0 0.59 0.016 1.16 0.042 1.718-1.555-0.199-2.904-0.484-4.061-0.812-0.061-6.23-1.425-10.083-1.866-11.165 2.537-2.607 6.028-4.279 9.903-4.445zM4.469 6.867c0.513 1.478 1.432 4.788 1.532 9.626-3.005-1.053-4.338-2.271-4.361-2.293-0.067-0.065-0.145-0.11-0.227-0.14 0.356-2.694 1.443-5.16 3.057-7.193zM1.29 15.608c0.747 0.55 2.263 1.492 4.71 2.292-0.106 3.926-1.27 6.079-1.814 6.87-1.825-2.451-2.906-5.487-2.906-8.771 0-0.131 0.006-0.261 0.010-0.392zM5.048 25.823c0.55-0.694 2.067-3.005 2.26-7.538 1.204 0.321 2.589 0.596 4.171 0.783 0.519 6.108 2.463 10.003 3.438 11.608-3.908-0.286-7.398-2.102-9.869-4.853zM26.285 26.518c-1.099-0.425-5.964-2.563-6.874-7.338 6.315-0.54 9.877-2.487 11.302-3.465 0.002 0.095 0.007 0.189 0.007 0.285 0 4.118-1.701 7.843-4.435 10.518z"></path>
</svg>
