<?xml version="1.0" encoding="utf-8"?>
<!-- Generated by IcoMoon.io -->
<!DOCTYPE svg PUBLIC "-//W3C//DTD SVG 1.1//EN" "http://www.w3.org/Graphics/SVG/1.1/DTD/svg11.dtd">
<svg version="1.1" xmlns="http://www.w3.org/2000/svg" xmlns:xlink="http://www.w3.org/1999/xlink" width="32" height="32" viewBox="0 0 32 32">
<path fill="#444444" d="M16 0c-3.136 0-5.826 1.87-7.020 4.56-4.077 3.173-6.364 6.519-7.58 10.72-1.226 4.237-1.4 9.317-1.4 16.080-0 0.003-0 0.006-0 0.009 0 0.354 0.287 0.64 0.64 0.64s0.64-0.287 0.64-0.64c0-0.003-0-0.006-0-0.010 0-6.74 0.182-11.717 1.34-15.72 1.005-3.473 2.721-6.24 5.76-8.92-0.040 0.317-0.060 0.632-0.060 0.96-0.001 0.012-0.001 0.026-0.001 0.040s0 0.028 0.001 0.042c-1.936 1.546-3.2 3.605-3.2 5.678 0 1.379 0.408 3.034 0.8 4.38 0.189 0.649 0.376 1.217 0.52 1.64-0.388 0.402-0.68 0.991-0.68 1.72 0 1.334 0.878 2.404 2.060 2.7 0.518 2.183 1.935 4.121 3.5 5.56 0.831 0.764 1.701 1.396 2.5 1.84s1.503 0.72 2.18 0.72c0.677 0 1.381-0.277 2.18-0.72s1.669-1.080 2.5-1.84c1.568-1.434 2.984-3.358 3.5-5.52 1.16-0.329 2.060-1.338 2.060-2.68 0-0.736-0.306-1.318-0.7-1.72 0.146-0.427 0.344-1.027 0.54-1.7 0.392-1.346 0.8-3.001 0.8-4.38 0-2.069-1.27-4.113-3.2-5.66 0.001-0.015 0.002-0.032 0.002-0.050s-0.001-0.035-0.002-0.052c0-0.326-0.020-0.641-0.060-0.958 3.039 2.68 4.755 5.447 5.76 8.92 1.158 4.003 1.34 8.979 1.34 15.72-0 0.003-0 0.006-0 0.009 0 0.354 0.287 0.64 0.64 0.64s0.64-0.287 0.64-0.64c0-0.003-0-0.006-0-0.010 0-6.763-0.174-11.842-1.4-16.080-1.216-4.201-3.503-7.547-7.58-10.72-1.194-2.69-3.884-4.56-7.020-4.56zM16 1.28c2.671 0 4.935 1.599 5.9 3.9-0.014-0.023 0.016 0.065 0.062 0.143 0.17 0.435 0.286 0.897 0.358 1.377-0.018-0.045-0.034-0.083-0.060-0.14-0.088-0.195-0.215-0.435-0.38-0.7-0.261-0.42-0.673-0.86-1.22-1.14-0.196-0.998-1.049-1.78-2.1-1.78-0.171 0-0.331 0.098-0.5 0.14-0.486-0.649-1.179-1.16-2.060-1.16s-1.574 0.511-2.060 1.16c-0.169-0.042-0.329-0.14-0.5-0.14-1.051 0-1.904 0.782-2.1 1.78-0.549 0.293-0.955 0.74-1.22 1.16-0.164 0.26-0.292 0.51-0.38 0.7-0.028 0.060-0.041 0.098-0.060 0.14 0.072-0.487 0.186-0.956 0.36-1.4-0.024 0.052 0.015-0.019 0.039-0.095 0.005-0.013 0.018-0.017 0.021-0.025 0-0.003 0-0.006 0-0.010s-0-0.007-0-0.011c0.006-0.013 0.014-0.026 0.020-0.039 0.975-2.278 3.225-3.86 5.88-3.86zM16 3.2c0.569 0 1.058 0.352 1.28 0.84 0.104 0.221 0.325 0.37 0.581 0.37 0.134 0 0.259-0.041 0.362-0.112 0.053-0.036 0.189-0.079 0.338-0.079 0.471 0 0.9 0.429 0.9 0.9 0 0 0 0 0 0 0 0.297 0.202 0.546 0.476 0.619 0.059 0.014 0.125 0.048 0.184 0.081-1.272-0.443-2.659-0.7-4.12-0.7-1.439 0-2.804 0.25-4.060 0.68 0.048-0.026 0.093-0.046 0.14-0.060 0.268-0.080 0.46-0.325 0.46-0.614 0-0.002 0-0.004-0-0.006 0-0.471 0.429-0.9 0.9-0.9 0.149 0 0.285 0.043 0.34 0.080 0.101 0.069 0.225 0.11 0.359 0.11 0.256 0 0.476-0.15 0.579-0.367 0.224-0.492 0.712-0.844 1.282-0.844zM16 6.4c2.663 0 5.097 0.965 6.84 2.34s2.76 3.145 2.76 4.7c0 1.117-0.364 2.726-0.74 4.020-0.174 0.599-0.341 1.1-0.48 1.5-0.020-0.004-0.040 0.004-0.060 0v-0.6c0-1.008-0.342-1.756-0.86-2.26s-1.138-0.779-1.7-1.1c-1.124-0.642-2.186-1.348-2.64-4.1-0.049-0.303-0.306-0.534-0.619-0.54-0.302 0.002-0.555 0.213-0.62 0.496-0.303 1.371-0.993 2.199-1.901 2.804s-2.058 0.966-3.22 1.24c-1.162 0.274-2.31 0.455-3.26 0.82-0.475 0.182-0.917 0.418-1.26 0.78s-0.56 0.868-0.56 1.42v0.96c-0.027 0.006-0.053 0.015-0.080 0.020-0.136-0.394-0.293-0.865-0.46-1.44-0.376-1.294-0.74-2.903-0.74-4.020 0-1.555 1.017-3.325 2.76-4.7s4.177-2.34 6.84-2.34zM18.36 12.9c0.698 1.79 1.828 2.656 2.78 3.2 0.614 0.351 1.116 0.624 1.42 0.92s0.48 0.588 0.48 1.34v1.040c0 0.353 0.287 0.64 0.64 0.64 0.192 0 0.581 0.079 0.84 0.26s0.44 0.39 0.44 0.94c0 0.924-0.554 1.445-1.36 1.54-0.269 0.035-0.489 0.245-0.539 0.516-0.346 1.905-1.719 3.812-3.241 5.204-0.761 0.696-1.565 1.275-2.26 1.66s-1.309 0.56-1.56 0.56c-0.251 0-0.865-0.174-1.56-0.56s-1.499-0.96-2.26-1.66c-1.521-1.399-2.893-3.324-3.24-5.26-0.051-0.28-0.287-0.497-0.578-0.52-0.76-0.045-1.322-0.616-1.322-1.54 0-0.55 0.181-0.779 0.44-0.96s0.648-0.26 0.84-0.26c0.353-0 0.64-0.287 0.64-0.64v-1.4c0-0.264 0.054-0.386 0.2-0.54s0.426-0.316 0.8-0.46c0.748-0.287 1.886-0.494 3.1-0.78s2.514-0.669 3.64-1.42c0.663-0.442 1.207-1.075 1.66-1.82z"></path>
</svg>
