<?xml version="1.0" encoding="utf-8"?>
<!-- Generated by IcoMoon.io -->
<!DOCTYPE svg PUBLIC "-//W3C//DTD SVG 1.1//EN" "http://www.w3.org/Graphics/SVG/1.1/DTD/svg11.dtd">
<svg version="1.1" xmlns="http://www.w3.org/2000/svg" xmlns:xlink="http://www.w3.org/1999/xlink" width="32" height="32" viewBox="0 0 32 32">
<path fill="#444444" d="M5.76 0c-1.053 0-1.92 0.867-1.92 1.92v30.080h24.32v-30.080c0-1.053-0.867-1.92-1.92-1.92h-20.48zM5.76 1.28h20.48c0.355 0 0.64 0.285 0.64 0.64v28.8h-2.56v-7.68h-7.040v7.68h-12.16v-28.8c0-0.355 0.285-0.64 0.64-0.64zM7.68 3.84v5.12h7.040v-5.12h-7.040zM17.28 3.84v5.12h7.040v-5.12h-7.040zM8.96 5.12h4.48v2.56h-4.48v-2.56zM18.56 5.12h4.48v2.56h-4.48v-2.56zM7.68 10.24v5.12h7.040v-5.12h-7.040zM17.28 10.24v5.12h7.040v-5.12h-7.040zM8.96 11.52h4.48v2.56h-4.48v-2.56zM18.56 11.52h4.48v2.56h-4.48v-2.56zM7.68 16.64v5.12h7.040v-5.12h-7.040zM17.28 16.64v5.12h7.040v-5.12h-7.040zM8.96 17.92h4.48v2.56h-4.48v-2.56zM18.56 17.92h4.48v2.56h-4.48v-2.56zM7.68 23.040v5.12h7.040v-5.12h-7.040zM8.96 24.32h4.48v2.56h-4.48v-2.56zM18.56 24.32h4.48v6.4h-4.48v-6.4z"></path>
</svg>
