<?xml version="1.0" encoding="utf-8"?>
<!-- Generated by IcoMoon.io -->
<!DOCTYPE svg PUBLIC "-//W3C//DTD SVG 1.1//EN" "http://www.w3.org/Graphics/SVG/1.1/DTD/svg11.dtd">
<svg version="1.1" xmlns="http://www.w3.org/2000/svg" xmlns:xlink="http://www.w3.org/1999/xlink" width="32" height="32" viewBox="0 0 32 32">
<path fill="#444444" d="M7.040 0c-0.334 0-0.679 0.119-0.92 0.36s-0.36 0.586-0.36 0.92v1.28h-4.48c-0.334 0-0.679 0.119-0.92 0.36s-0.36 0.586-0.36 0.92v26.88c0 0.334 0.119 0.679 0.36 0.92s0.586 0.36 0.92 0.36h29.44c0.334 0 0.679-0.119 0.92-0.36s0.36-0.586 0.36-0.92v-26.88c0-0.334-0.119-0.679-0.36-0.92s-0.586-0.36-0.92-0.36h-4.48v-1.28c0-0.334-0.119-0.679-0.36-0.92s-0.586-0.36-0.92-0.36h-1.28c-0.334 0-0.679 0.119-0.92 0.36s-0.36 0.586-0.36 0.92v1.28h-12.8v-1.28c0-0.334-0.119-0.679-0.36-0.92s-0.586-0.36-0.92-0.36h-1.28zM7.040 1.28h1.28v3.84h-1.28v-3.84zM23.68 1.28h1.28v3.84h-1.28v-3.84zM1.28 3.84h4.48v1.28c0 0.334 0.119 0.679 0.36 0.92s0.586 0.36 0.92 0.36h1.28c0.334 0 0.679-0.119 0.92-0.36s0.36-0.586 0.36-0.92v-1.28h12.8v1.28c0 0.334 0.119 0.679 0.36 0.92s0.586 0.36 0.92 0.36h1.28c0.334 0 0.679-0.119 0.92-0.36s0.36-0.586 0.36-0.92v-1.28h4.48v5.12h-29.44v-5.12zM1.28 10.24h29.44v20.48h-29.44v-20.48zM4.36 13.44c-0.298 0.058-0.52 0.318-0.52 0.629 0 0.004 0 0.008 0 0.012v13.439c0 0.353 0.287 0.64 0.64 0.64h23.040c0.353-0 0.64-0.287 0.64-0.64v-13.44c-0-0.353-0.287-0.64-0.64-0.64h-23.040c-0.009-0-0.019-0.001-0.030-0.001s-0.021 0-0.031 0.001c-0.008-0.001-0.018-0.001-0.029-0.001s-0.021 0-0.031 0.001zM5.12 14.72h4.48v3.2h-4.48v-3.2zM10.88 14.72h4.48v3.2h-4.48v-3.2zM16.64 14.72h4.48v3.2h-4.48v-3.2zM22.4 14.72h4.48v3.2h-4.48v-3.2zM5.12 19.2h4.48v3.2h-4.48v-3.2zM10.88 19.2h4.48v3.2h-4.48v-3.2zM16.64 19.2h4.48v3.2h-4.48v-3.2zM22.4 19.2h4.48v3.2h-4.48v-3.2zM5.12 23.68h4.48v3.2h-4.48v-3.2zM10.88 23.68h4.48v3.2h-4.48v-3.2zM16.64 23.68h4.48v3.2h-4.48v-3.2zM22.4 23.68h4.48v3.2h-4.48v-3.2z"></path>
</svg>
