<?xml version="1.0" encoding="utf-8"?>
<!-- Generated by IcoMoon.io -->
<!DOCTYPE svg PUBLIC "-//W3C//DTD SVG 1.1//EN" "http://www.w3.org/Graphics/SVG/1.1/DTD/svg11.dtd">
<svg version="1.1" xmlns="http://www.w3.org/2000/svg" xmlns:xlink="http://www.w3.org/1999/xlink" width="32" height="32" viewBox="0 0 32 32">
<path fill="#444444" d="M9.040 14.080c-0.78 0-1.366 0.489-1.8 1.040s-0.787 1.208-1.14 1.84c-0.353 0.632-0.702 1.238-1.080 1.64s-0.728 0.6-1.18 0.6h-1.28c-0.637 0-1.279 0.142-1.78 0.58s-0.78 1.143-0.78 1.98v5.32c0 0.528 0.252 1.009 0.62 1.3s0.834 0.42 1.3 0.42h1.34c0.304 1.814 1.882 3.2 3.78 3.2s3.476-1.386 3.78-3.2h10.36c0.304 1.814 1.882 3.2 3.78 3.2s3.476-1.386 3.78-3.2h1.34c1.057 0 1.92-0.863 1.92-1.92v-3.84c0-0.641-0.419-1.080-0.9-1.44s-1.11-0.664-1.82-0.96c-1.368-0.57-3.074-1.053-4.66-1.38-0.021-0.017-0.106-0.048-0.197-0.060-0.024-0.017-0.363-0.196-0.723-0.52-0.38-0.343-0.817-0.804-1.22-1.26-0.807-0.912-1.5-1.8-1.5-1.8l-0.040-0.080c-0.64-0.64-1.527-1.46-3.020-1.46h-8.88zM9.040 15.36h4.4v3.84h-7.26c0.408-0.497 0.736-1.055 1.040-1.6 0.362-0.648 0.698-1.271 1.020-1.68s0.552-0.56 0.8-0.56zM14.72 15.36h3.2c1.067 0 1.46 0.46 2.1 1.1l0.020-0.020c0.046 0.061 0.665 0.899 1.48 1.82 0.288 0.325 0.596 0.637 0.9 0.94h-7.7v-3.84zM2.56 20.48h21.76c1.533 0.314 3.211 0.811 4.48 1.34 0.65 0.271 1.181 0.546 1.52 0.8s0.4 0.449 0.4 0.42v3.84c0 0.299-0.341 0.64-0.64 0.64h-1.34c-0.304-1.814-1.882-3.2-3.78-3.2s-3.476 1.386-3.78 3.2h-10.36c-0.304-1.814-1.882-3.2-3.78-3.2s-3.476 1.386-3.78 3.2h-1.34c-0.211 0-0.398-0.059-0.5-0.14s-0.14-0.151-0.14-0.3v-5.32c0-0.583 0.15-0.853 0.34-1.020s0.501-0.26 0.94-0.26zM7.040 25.6c1.421 0 2.56 1.139 2.56 2.56s-1.139 2.56-2.56 2.56c-1.421 0-2.56-1.139-2.56-2.56s1.139-2.56 2.56-2.56zM24.96 25.6c1.421 0 2.56 1.139 2.56 2.56s-1.139 2.56-2.56 2.56c-1.421 0-2.56-1.139-2.56-2.56s1.139-2.56 2.56-2.56z"></path>
</svg>
