<?xml version="1.0" encoding="utf-8"?>
<!-- Generated by IcoMoon.io -->
<!DOCTYPE svg PUBLIC "-//W3C//DTD SVG 1.1//EN" "http://www.w3.org/Graphics/SVG/1.1/DTD/svg11.dtd">
<svg version="1.1" xmlns="http://www.w3.org/2000/svg" xmlns:xlink="http://www.w3.org/1999/xlink" width="32" height="32" viewBox="0 0 32 32">
<path fill="#444444" d="M15.94-0.020c0.030-0.008-0.029 0.003-0.085 0.021-0.284 0.065-0.496 0.319-0.496 0.623 0 0.005 0 0.011 0 0.016l-0 1.299c-7.257 0.328-13.092 6.163-13.42 13.42h-1.3c-0.009-0-0.019-0.001-0.030-0.001s-0.021 0-0.031 0.001c-0.339 0.016-0.609 0.297-0.609 0.64 0 0.354 0.287 0.641 0.641 0.641 0.011 0 0.021-0 0.031-0.001l1.299 0c0.328 7.257 6.163 13.092 13.42 13.42v1.3c-0 0.003-0 0.006-0 0.009 0 0.354 0.287 0.64 0.64 0.64s0.64-0.287 0.64-0.64c0-0.003-0-0.006-0-0.010v-1.3c7.257-0.328 13.092-6.163 13.42-13.42h1.3c0.003 0 0.006 0 0.009 0 0.354 0 0.64-0.287 0.64-0.64s-0.287-0.64-0.64-0.64c-0.003 0-0.006 0-0.010 0h-1.3c-0.328-7.257-6.163-13.092-13.42-13.42v-1.3c0-0.007 0-0.015 0-0.023 0-0.353-0.287-0.64-0.64-0.64-0.021 0-0.042 0.001-0.063 0.003zM15.34 3.22c0.007-0 0.013 0 0.020 0v2.54c-0 0.003-0 0.006-0 0.009 0 0.354 0.287 0.64 0.64 0.64s0.64-0.287 0.64-0.64c0-0.003-0-0.006-0-0.010v-2.54c6.567 0.322 11.818 5.573 12.14 12.14h-2.54c-0.009-0-0.019-0.001-0.030-0.001s-0.021 0-0.031 0.001c-0.339 0.016-0.609 0.297-0.609 0.64 0 0.354 0.287 0.641 0.641 0.641 0.011 0 0.021-0 0.031-0.001l2.539 0c-0.322 6.567-5.573 11.818-12.14 12.14v-2.54c0-0.005 0-0.010 0-0.015 0-0.354-0.287-0.64-0.64-0.64-0.050 0-0.098 0.006-0.144 0.016-0.284 0.065-0.496 0.32-0.496 0.624 0 0.005 0 0.011 0 0.016l-0 2.539c-6.567-0.322-11.818-5.573-12.14-12.14h2.54c0.003 0 0.006 0 0.009 0 0.354 0 0.64-0.287 0.64-0.64s-0.287-0.64-0.64-0.64c-0.003 0-0.006 0-0.010 0h-2.54c0.322-6.56 5.562-11.808 12.12-12.14zM16 11.52c-2.474 0-4.48 2.006-4.48 4.48s2.006 4.48 4.48 4.48c2.474 0 4.48-2.006 4.48-4.48s-2.006-4.48-4.48-4.48z"></path>
</svg>
