<?xml version="1.0" encoding="utf-8"?>
<!-- Generated by IcoMoon.io -->
<!DOCTYPE svg PUBLIC "-//W3C//DTD SVG 1.1//EN" "http://www.w3.org/Graphics/SVG/1.1/DTD/svg11.dtd">
<svg version="1.1" xmlns="http://www.w3.org/2000/svg" xmlns:xlink="http://www.w3.org/1999/xlink" width="32" height="32" viewBox="0 0 32 32">
<path fill="#444444" d="M16 0c-8.829 0-16 7.171-16 16s7.171 16 16 16c8.829 0 16-7.171 16-16s-7.171-16-16-16zM16 1.28c8.137 0 14.72 6.583 14.72 14.72s-6.583 14.72-14.72 14.72c-8.137 0-14.72-6.583-14.72-14.72s6.583-14.72 14.72-14.72zM15.94 3.18c0.030-0.008-0.029 0.003-0.085 0.021-0.284 0.065-0.496 0.319-0.496 0.623 0 0.005 0 0.011 0 0.016l-0 10.359c-0.741 0.266-1.28 0.967-1.28 1.8 0 0.29 0.085 0.553 0.2 0.8l-3.86 3.86c-0.118 0.118-0.191 0.28-0.191 0.46 0 0.359 0.291 0.651 0.651 0.651 0.18 0 0.342-0.073 0.46-0.191l3.86-3.86c0.247 0.115 0.51 0.2 0.8 0.2 1.060 0 1.92-0.86 1.92-1.92 0-0.833-0.539-1.534-1.28-1.8v-10.36c0-0.007 0-0.015 0-0.023 0-0.353-0.287-0.64-0.64-0.64-0.021 0-0.042 0.001-0.063 0.003z"></path>
</svg>
