<?xml version="1.0" encoding="utf-8"?>
<!-- Generated by IcoMoon.io -->
<!DOCTYPE svg PUBLIC "-//W3C//DTD SVG 1.1//EN" "http://www.w3.org/Graphics/SVG/1.1/DTD/svg11.dtd">
<svg version="1.1" xmlns="http://www.w3.org/2000/svg" xmlns:xlink="http://www.w3.org/1999/xlink" width="32" height="32" viewBox="0 0 32 32">
<path fill="#444444" d="M16.58 0.62c0.030-0.008-0.029 0.003-0.085 0.021-0.284 0.065-0.496 0.319-0.496 0.623 0 0.005 0 0.011 0 0.016-0 1.954-0.744 2.543-1.7 3.399s-2.12 1.982-2.12 4.28c-0 0.003-0 0.006-0 0.009 0 0.354 0.287 0.64 0.64 0.64s0.64-0.287 0.64-0.64c0-0.003-0-0.006-0-0.010 0-1.909 0.741-2.48 1.7-3.34s2.12-2.004 2.12-4.34c0-0.007 0-0.015 0-0.023 0-0.353-0.287-0.64-0.64-0.64-0.021 0-0.042 0.001-0.063 0.003zM19.78 3.82c0.030-0.008-0.029 0.003-0.085 0.021-0.284 0.065-0.496 0.319-0.496 0.623 0 0.005 0 0.011 0 0.016-0 1.249-0.422 1.551-1.060 2.119s-1.5 1.408-1.5 3c-0 0.003-0 0.006-0 0.009 0 0.354 0.287 0.64 0.64 0.64s0.64-0.287 0.64-0.64c0-0.003-0-0.006-0-0.010 0-1.2 0.416-1.466 1.060-2.040s1.5-1.45 1.5-3.080c0-0.007 0-0.015 0-0.023 0-0.354-0.287-0.64-0.64-0.64-0.021 0-0.042 0.001-0.063 0.003zM6.92 11.52c-0.298 0.058-0.52 0.318-0.52 0.629 0 0.004 0 0.008 0 0.012v17.919c0 1.053 0.867 1.92 1.92 1.92h13.44c1.053 0 1.92-0.867 1.92-1.92v-3.86c1.853-0.12 3.214-1.087 4-2.38 0.84-1.381 1.12-3.090 1.12-4.64 0-0.83-0.196-1.629-0.74-2.24s-1.408-0.96-2.46-0.96h-1.92v-3.84c-0-0.353-0.287-0.64-0.64-0.64h-16c-0.009-0-0.019-0.001-0.030-0.001s-0.021 0-0.031 0.001c-0.008-0.001-0.018-0.001-0.029-0.001s-0.021 0-0.031 0.001zM7.68 12.8h14.72v17.28c0 0.362-0.278 0.64-0.64 0.64h-13.44c-0.362 0-0.64-0.278-0.64-0.64v-17.28zM23.68 17.28h1.92c0.796 0 1.226 0.213 1.5 0.52s0.42 0.78 0.42 1.4c0 1.383-0.28 2.875-0.94 3.96-0.606 0.997-1.483 1.675-2.9 1.78v-7.66z"></path>
</svg>
