<?xml version="1.0" encoding="utf-8"?>
<!-- Generated by IcoMoon.io -->
<!DOCTYPE svg PUBLIC "-//W3C//DTD SVG 1.1//EN" "http://www.w3.org/Graphics/SVG/1.1/DTD/svg11.dtd">
<svg version="1.1" xmlns="http://www.w3.org/2000/svg" xmlns:xlink="http://www.w3.org/1999/xlink" width="32" height="32" viewBox="0 0 32 32">
<path fill="#444444" d="M1.28 0c-0.7 0-1.28 0.58-1.28 1.28v21.76c0 0.231 0.070 0.451 0.18 0.64-0.11 0.189-0.18 0.409-0.18 0.64v6.4c0 0.7 0.58 1.28 1.28 1.28h29.44c0.7 0 1.28-0.58 1.28-1.28v-6.4c0-0.231-0.070-0.451-0.18-0.64 0.11-0.189 0.18-0.409 0.18-0.64v-21.76c0-0.7-0.58-1.28-1.28-1.28h-29.44zM1.28 1.28h29.44v21.76h-29.44v-21.76zM3.84 2.56c-0.7 0-1.28 0.58-1.28 1.28v14.72c0 0.7 0.58 1.28 1.28 1.28h24.32c0.7 0 1.28-0.58 1.28-1.28v-14.72c0-0.7-0.58-1.28-1.28-1.28h-24.32zM3.84 3.84h24.32v14.72h-24.32v-14.72zM1.28 24.32h29.44v6.4h-29.44v-6.4zM26.88 26.24c-0.707 0-1.28 0.573-1.28 1.28s0.573 1.28 1.28 1.28c0.707 0 1.28-0.573 1.28-1.28s-0.573-1.28-1.28-1.28zM3.84 26.88v1.28h12.8v-1.28h-12.8z"></path>
</svg>
