<?xml version="1.0" encoding="utf-8"?>
<!-- Generated by IcoMoon.io -->
<!DOCTYPE svg PUBLIC "-//W3C//DTD SVG 1.1//EN" "http://www.w3.org/Graphics/SVG/1.1/DTD/svg11.dtd">
<svg version="1.1" xmlns="http://www.w3.org/2000/svg" xmlns:xlink="http://www.w3.org/1999/xlink" width="32" height="32" viewBox="0 0 32 32">
<path fill="#444444" d="M28.1 0.62c0.030-0.008-0.029 0.003-0.085 0.021-0.284 0.065-0.496 0.319-0.496 0.623 0 0.005 0 0.011 0 0.016-0 1.215-0.563 1.882-1.6 2.539s-2.538 1.189-4.080 1.84c-1.542 0.651-3.141 1.432-4.38 2.74-1.128 1.191-1.909 2.825-2.040 5.020-1.155-0.088-1.832-0.445-2.64-0.86-0.935-0.48-2.045-1.040-3.82-1.040-1.094 0-2.142 0.641-3.14 1.58s-1.962 2.218-2.82 3.7c-1.716 2.964-3 6.713-3 10.080 0 1.387 0.345 2.624 1 3.56s1.667 1.56 2.84 1.56c3.093 0 5.339-1.563 7.2-3.020s3.36-2.74 4.96-2.74c1.6 0 3.099 1.283 4.96 2.74s4.107 3.020 7.2 3.020c1.173 0 2.185-0.624 2.84-1.56s1-2.173 1-3.56c0-3.367-1.284-7.116-3-10.080-0.858-1.482-1.822-2.761-2.82-3.7s-2.046-1.58-3.14-1.58c-1.775 0-2.885 0.56-3.82 1.040-0.774 0.398-1.431 0.734-2.5 0.84 0.124-1.882 0.753-3.141 1.68-4.12 1.034-1.092 2.451-1.831 3.94-2.46s3.024-1.137 4.26-1.92c1.236-0.783 2.2-1.955 2.2-3.62 0-0.007 0-0.015 0-0.023 0-0.353-0.287-0.64-0.64-0.64-0.021 0-0.042 0.001-0.063 0.003zM8.96 12.8c1.526 0 2.285 0.4 3.22 0.88s2.045 1.040 3.82 1.040c0.062 0 0.119 0.001 0.18 0 0.003 0 0.006 0 0.010 0s0.007-0 0.011-0c1.656-0.041 2.721-0.579 3.619-1.040 0.935-0.48 1.694-0.88 3.22-0.88 0.556 0 1.388 0.399 2.26 1.22s1.771 2.022 2.58 3.42c1.619 2.796 2.84 6.407 2.84 9.44 0 1.173-0.295 2.176-0.76 2.84s-1.053 1-1.8 1c-2.667 0-4.581-1.317-6.4-2.74s-3.52-3.020-5.76-3.020c-2.24 0-3.941 1.597-5.76 3.020s-3.733 2.74-6.4 2.74c-0.747 0-1.335-0.336-1.8-1s-0.76-1.667-0.76-2.84c0-3.033 1.221-6.644 2.84-9.44 0.809-1.398 1.708-2.599 2.58-3.42s1.704-1.22 2.26-1.22zM23.68 17.28c-0.707 0-1.28 0.573-1.28 1.28s0.573 1.28 1.28 1.28c0.707 0 1.28-0.573 1.28-1.28s-0.573-1.28-1.28-1.28zM7.68 17.92v1.92h-1.92v1.92h1.92v1.92h1.92v-1.92h1.92v-1.92h-1.92v-1.92h-1.92zM21.12 19.84c-0.707 0-1.28 0.573-1.28 1.28s0.573 1.28 1.28 1.28c0.707 0 1.28-0.573 1.28-1.28s-0.573-1.28-1.28-1.28zM26.24 19.84c-0.707 0-1.28 0.573-1.28 1.28s0.573 1.28 1.28 1.28c0.707 0 1.28-0.573 1.28-1.28s-0.573-1.28-1.28-1.28zM23.68 22.4c-0.707 0-1.28 0.573-1.28 1.28s0.573 1.28 1.28 1.28c0.707 0 1.28-0.573 1.28-1.28s-0.573-1.28-1.28-1.28z"></path>
</svg>
