<?xml version="1.0" encoding="utf-8"?>
<!-- Generated by IcoMoon.io -->
<!DOCTYPE svg PUBLIC "-//W3C//DTD SVG 1.1//EN" "http://www.w3.org/Graphics/SVG/1.1/DTD/svg11.dtd">
<svg version="1.1" xmlns="http://www.w3.org/2000/svg" xmlns:xlink="http://www.w3.org/1999/xlink" width="32" height="32" viewBox="0 0 32 32">
<path fill="#444444" d="M5.12 0c-0.7 0-1.28 0.58-1.28 1.28h-1.92c-1.053 0-1.92 0.867-1.92 1.92v24.96c0 1.052 0.867 1.92 1.92 1.92h1.28v0.64c0 0.7 0.58 1.28 1.28 1.28h1.92c0.7 0 1.28-0.58 1.28-1.28v-0.64h16.64v0.64c0 0.7 0.58 1.28 1.28 1.28h1.92c0.7 0 1.28-0.58 1.28-1.28v-0.64h1.28c1.053 0 1.92-0.867 1.92-1.92v-19.72c0.008-0.039 0.013-0.084 0.013-0.13s-0.005-0.091-0.014-0.134l0.001-4.976c0-1.053-0.868-1.92-1.92-1.92h-1.92c0-0.7-0.58-1.28-1.28-1.28h-5.76c-0.7 0-1.28 0.58-1.28 1.28h-5.76c0-0.7-0.58-1.28-1.28-1.28h-7.68zM1.92 2.56h28.16c0.361 0 0.64 0.279 0.64 0.64v4.48h-29.44v-4.48c0-0.362 0.278-0.64 0.64-0.64zM4.48 3.84c-0.707 0-1.28 0.573-1.28 1.28s0.573 1.28 1.28 1.28c0.707 0 1.28-0.573 1.28-1.28s-0.573-1.28-1.28-1.28zM8.32 3.84c-0.707 0-1.28 0.573-1.28 1.28s0.573 1.28 1.28 1.28c0.707 0 1.28-0.573 1.28-1.28s-0.573-1.28-1.28-1.28zM12.16 3.84c-0.707 0-1.28 0.573-1.28 1.28s0.573 1.28 1.28 1.28c0.707 0 1.28-0.573 1.28-1.28s-0.573-1.28-1.28-1.28zM16 3.84c-0.707 0-1.28 0.573-1.28 1.28s0.573 1.28 1.28 1.28c0.707 0 1.28-0.573 1.28-1.28s-0.573-1.28-1.28-1.28zM27.52 3.84c-0.707 0-1.28 0.573-1.28 1.28s0.573 1.28 1.28 1.28c0.707 0 1.28-0.573 1.28-1.28s-0.573-1.28-1.28-1.28zM1.28 8.96h29.44v19.2c0 0.36-0.28 0.64-0.64 0.64h-5c-0.039-0.008-0.084-0.013-0.13-0.013s-0.091 0.005-0.134 0.014l-20.856-0.001c-0.039-0.008-0.084-0.013-0.13-0.013s-0.091 0.005-0.134 0.014l-1.776-0.001c-0.361 0-0.64-0.279-0.64-0.64v-19.2zM3.2 11.52v14.72h25.6v-14.72h-25.6zM4.48 12.8h23.040v12.16h-23.040v-12.16zM4.48 30.080h1.92v0.64h-1.92v-0.64zM25.6 30.080h1.92v0.64h-1.92v-0.64z"></path>
</svg>
