<?xml version="1.0" encoding="utf-8"?>
<!-- Generated by IcoMoon.io -->
<!DOCTYPE svg PUBLIC "-//W3C//DTD SVG 1.1//EN" "http://www.w3.org/Graphics/SVG/1.1/DTD/svg11.dtd">
<svg version="1.1" xmlns="http://www.w3.org/2000/svg" xmlns:xlink="http://www.w3.org/1999/xlink" width="32" height="32" viewBox="0 0 32 32">
<path fill="#444444" d="M6.4 0c-2.113 0-3.84 1.727-3.84 3.84s1.727 3.84 3.84 3.84c2.113 0 3.84-1.727 3.84-3.84s-1.727-3.84-3.84-3.84zM23.68 0c-2.113 0-3.84 1.727-3.84 3.84s1.727 3.84 3.84 3.84c2.113 0 3.84-1.727 3.84-3.84s-1.727-3.84-3.84-3.84zM6.4 1.28c1.421 0 2.56 1.139 2.56 2.56s-1.139 2.56-2.56 2.56c-1.421 0-2.56-1.139-2.56-2.56s1.139-2.56 2.56-2.56zM23.68 1.28c1.421 0 2.56 1.139 2.56 2.56s-1.139 2.56-2.56 2.56c-1.421 0-2.56-1.139-2.56-2.56s1.139-2.56 2.56-2.56zM13.82 4.42c-0.64 0-1.020 0.504-1.020 1.080 0 1.152 2.24 2.82 2.24 2.82s2.24-1.668 2.24-2.82c0-0.576-0.52-1.080-1.16-1.080s-1.14 0.58-1.14 0.58c0 0-0.52-0.58-1.16-0.58zM3.52 8.32c-1.941 0-3.52 1.579-3.52 3.52v8.52c-0.002 0.018-0.003 0.039-0.003 0.060s0.001 0.042 0.003 0.063c-0 0.003-0.001 0.010-0.001 0.017 0 0.057 0.007 0.112 0.021 0.164 0.093 0.963 0.908 1.736 1.899 1.736 0.226 0 0.438-0.047 0.64-0.12v7.48c0 1.231 1.009 2.24 2.24 2.24 0.625 0 1.192-0.262 1.6-0.68 0.408 0.418 0.975 0.68 1.6 0.68 1.231 0 2.24-1.009 2.24-2.24v-13.6l1.54 3.24c-0 0.003-0 0.006-0 0.010s0 0.007 0 0.011c0.48 0.96 1.665 1.257 2.58 0.799 0.118-0.059 0.222-0.121 0.32-0.2 0.227 0.209 0.517 0.367 0.84 0.44 0.006 0.001 0.014-0.001 0.020 0 0.844 0.2 1.58-0.291 2-0.88-0.058 0.096-0.014 0.033 0.018-0.036l0.502-0.824-1.060 3.22c-0.118 0.354-0.134 0.79 0.14 1.2 0.255 0.383 0.706 0.54 1.040 0.54h2.3v6.4c0 1.053 0.867 1.92 1.92 1.92 0.491 0 0.939-0.192 1.28-0.5 0.341 0.308 0.789 0.5 1.28 0.5 1.053 0 1.92-0.867 1.92-1.92v-6.4h2.3c0.476 0 0.757-0.237 0.96-0.44-0.055 0.060 0.022-0.011 0.078-0.098 0.239-0.358 0.244-0.833 0.162-1.162 0.041 0.097 0.015 0.023-0.022-0.043l-0.278-0.817c0.646 0 1.227-0.32 1.54-0.82 0.309-0.495 0.369-1.137 0.16-1.74-0.001-0.004 0.001-0.016 0-0.020-0.583-1.814-2.56-7.86-2.56-7.86-0.116-0.349-0.363-0.914-0.84-1.42s-1.221-0.94-2.2-0.94h-4.54c-1.14 0-2.227 0.618-2.8 1.6-1.15 1.955-3.076 5.33-4 6.94l-2.6-6.28c-0.543-1.396-1.877-2.26-3.34-2.26h-5.38zM3.52 9.6h5.38c0.969 0 1.807 0.532 2.16 1.44-0 0.003-0 0.006-0 0.010s0 0.007 0 0.011l2.94 7.099c-0.041-0.097-0.015-0.023 0.022 0.043 0.181 0.362 0.098 0.717-0.222 0.877-0.355 0.177-0.695 0.077-0.86-0.22-0.005-0.009-0.015-0.011-0.020-0.020l-2.68-5.68c-0.073-0.161-0.247-0.301-0.456-0.339 0.092 0.058 0.029 0.013-0.040-0.019-0.007-0.002-0.010-0.002-0.014-0.002s-0.007 0-0.011 0c-0.039-0.008-0.083-0.013-0.129-0.013s-0.091 0.005-0.134 0.014c-0.284 0.065-0.496 0.32-0.496 0.624 0 0.005 0 0.011 0 0.016l-0 16.319c0 0.561-0.399 0.96-0.96 0.96s-0.96-0.399-0.96-0.96c0-0.009 0.001-0.019 0.001-0.030s-0-0.021-0.001-0.031l0-7.939c0-0.005 0-0.010 0-0.015 0-0.354-0.287-0.64-0.64-0.64-0.050 0-0.098 0.006-0.144 0.016-0.284 0.065-0.496 0.32-0.496 0.624 0 0.005 0 0.011 0 0.016l-0 7.899c-0 0.009-0.001 0.019-0.001 0.030s0 0.021 0.001 0.031c-0 0.005-0 0.012-0 0.019s0 0.014 0 0.021c-0 0.56-0.399 0.959-0.96 0.959s-0.96-0.399-0.96-0.96v-16.32c0-0.005 0-0.010 0-0.015 0-0.354-0.287-0.64-0.64-0.64-0.050 0-0.098 0.006-0.144 0.016-0.284 0.065-0.496 0.32-0.496 0.624 0 0.005 0 0.011 0 0.016l-0 6.939c-0 0.009-0.001 0.019-0.001 0.030s0 0.021 0.001 0.031l-0 0.039c0 0.355-0.285 0.64-0.64 0.64-0.341 0-0.619-0.265-0.64-0.6 0-0.006 0-0.013 0-0.020s-0-0.014-0-0.021c0.002-0.017 0.003-0.038 0.003-0.059s-0.001-0.042-0.003-0.063l0-8.517c0-1.259 0.981-2.24 2.24-2.24zM21.64 9.6h4.54c0.621 0 0.989 0.23 1.28 0.54s0.464 0.713 0.54 0.94c0 0 1.986 6.074 2.56 7.86-0 0.003-0 0.006-0 0.010s0 0.007 0 0.011c0.103 0.287 0.067 0.52-0.020 0.659s-0.21 0.22-0.46 0.22c-0.245 0-0.452-0.132-0.56-0.42 0.018 0.062 0.003-0.004-0.022-0.064l-1.818-5.476c-0.081-0.267-0.325-0.457-0.613-0.457-0.052 0-0.103 0.006-0.151 0.018-0.283 0.066-0.493 0.32-0.493 0.623 0 0.077 0.014 0.152 0.039 0.22l1.819 5.456c-0.005 0.001 0.013 0.076 0.042 0.144 0.009 0.024 0.026 0.048 0.038 0.076l0.78 2.34c0.038 0.153 0.031 0.098 0.020 0.1h-10.96c0.003-0.012-0.008-0.037 0-0.060l2.7-8.060c0.021-0.060 0.033-0.13 0.033-0.203 0-0.169-0.066-0.323-0.173-0.438 0.082 0.099 0.028 0.023-0.039-0.039 0.071 0.084 0.013 0.004-0.060-0.060 0.095 0.058 0.033 0.013-0.037-0.019 0.082 0.067 0.016 0.006-0.061-0.040-0.093-0.053-0.201-0.084-0.316-0.084-0.244 0-0.457 0.137-0.565 0.339l-3.182 5.083c-0.216 0.303-0.489 0.443-0.66 0.4-0.003-0-0.006-0-0.010-0s-0.007 0-0.011 0c-0.26-0.056-0.348-0.149-0.399-0.3s-0.034-0.413 0.12-0.7c0.719-1.242 3.131-5.502 4.4-7.66 0.323-0.554 1.048-0.96 1.7-0.96zM21.76 23.68h1.28v6.4c0 0.355-0.285 0.64-0.64 0.64s-0.64-0.285-0.64-0.64v-6.4zM24.32 23.68h1.28v6.4c0 0.355-0.285 0.64-0.64 0.64s-0.64-0.285-0.64-0.64v-6.4z"></path>
</svg>
