<?xml version="1.0" encoding="utf-8"?>
<!-- Generated by IcoMoon.io -->
<!DOCTYPE svg PUBLIC "-//W3C//DTD SVG 1.1//EN" "http://www.w3.org/Graphics/SVG/1.1/DTD/svg11.dtd">
<svg version="1.1" xmlns="http://www.w3.org/2000/svg" xmlns:xlink="http://www.w3.org/1999/xlink" width="32" height="32" viewBox="0 0 32 32">
<path fill="#444444" d="M0.52 0c-0.298 0.058-0.52 0.318-0.52 0.629 0 0.004 0 0.008 0 0.012v25.599c0 0.353 0.287 0.64 0.64 0.64h10.24v-1.28h-9.6v-24.32h29.44v24.32h-9.6v1.28h10.24c0.353-0 0.64-0.287 0.64-0.64v-25.6c-0-0.353-0.287-0.64-0.64-0.64h-30.72c-0.009-0-0.019-0.001-0.030-0.001s-0.021 0-0.031 0.001c-0.007-0.001-0.018-0.001-0.029-0.001s-0.021 0-0.031 0.001zM6.4 5.76v1.28h19.2v-1.28h-19.2zM6.4 8.96v1.28h19.2v-1.28h-19.2zM6.4 12.16v1.28h19.2v-1.28h-19.2zM15.94 15.3c-0.671 0-1.203 0.399-1.54 0.94-0.625-0.199-1.308-0.139-1.82 0.3-0.521 0.446-0.68 1.106-0.6 1.74-0.609 0.256-1.082 0.74-1.22 1.36-0 0.009-0.001 0.019-0.001 0.030s0 0.021 0.001 0.031c-0.077 0.616 0.198 1.182 0.64 1.619-0.291 0.58-0.396 1.251-0.060 1.84 0.189 0.331 0.488 0.551 0.82 0.7v7.5c0.008 0.347 0.291 0.626 0.64 0.626 0.118 0 0.228-0.032 0.323-0.087l2.877-1.718 2.88 1.72c0.092 0.054 0.202 0.086 0.32 0.086 0.348 0 0.632-0.279 0.64-0.625v-7.761c0.15-0.111 0.288-0.224 0.4-0.38-0.027 0.067 0.001 0.008 0.019-0.055 0.33-0.579 0.253-1.233-0.019-1.805 0.572-0.423 0.95-1.027 0.88-1.66 0.018 0.061 0.003-0.004-0.022-0.064-0.142-0.643-0.625-1.112-1.218-1.376 0.072-0.628-0.065-1.279-0.58-1.72-0.531-0.455-1.211-0.469-1.82-0.3-0.341-0.523-0.849-0.94-1.54-0.94zM15.94 16.58c0.292 0 0.506 0.176 0.62 0.48 0.047 0.157 0.2 0.314 0.395 0.379 0.014 0.006 0.099 0.008 0.125 0.021 0.032 0.009 0.007 0.020 0.080 0.020 0.061 0.022 0.062 0.060 0.18 0.060 0.106-0 0.212-0.030 0.303-0.082 0.337-0.168 0.575-0.166 0.817 0.042 0.254 0.217 0.304 0.503 0.2 0.78-0.021 0.060-0.033 0.13-0.033 0.203 0 0.169 0.066 0.323 0.173 0.438 0.026 0.050 0.051 0.131 0.14 0.22 0.044 0.063 0.171 0.146 0.316 0.179 0.362 0.080 0.5 0.237 0.584 0.581 0.025 0.296-0.023 0.454-0.48 0.62-0.247 0.092-0.42 0.326-0.42 0.6v0.26c0.001 0.13 0.046 0.258 0.121 0.362 0.182 0.255 0.196 0.556 0.099 0.758-0.198 0.249-0.482 0.39-0.72 0.36-0.021-0.003-0.046-0.004-0.071-0.004-0.175 0-0.334 0.070-0.449 0.184l-0.2 0.18c-0.111 0.115-0.18 0.272-0.18 0.445 0 0.005 0 0.010 0 0.016 0 0.338-0.132 0.511-0.42 0.619-0.003-0-0.006-0-0.010-0s-0.007 0-0.011 0c-0-0.007-0.103 0.020-0.199 0.020-0.171 0-0.339-0.079-0.52-0.26-0.112-0.11-0.268-0.179-0.44-0.18h-0.32c-0.004-0-0.010-0-0.015-0-0.173 0-0.33 0.069-0.445 0.18-0.258 0.258-0.471 0.333-0.72 0.24-0.244-0.091-0.42-0.375-0.42-0.62-0.001-0.18-0.077-0.344-0.2-0.46l-0.18-0.18c-0.116-0.115-0.275-0.186-0.451-0.186-0.031 0-0.062 0.002-0.092 0.007-0.248 0.031-0.511-0.1-0.637-0.32-0.116-0.203-0.093-0.53 0.1-0.8 0.071-0.095 0.117-0.222 0.12-0.359v-0.261c-0.001-0.241-0.137-0.451-0.337-0.558-0.173-0.099-0.311-0.419-0.303-0.662 0.087-0.353 0.249-0.55 0.52-0.58 0.128-0.006 0.272-0.074 0.38-0.18 0.098-0.098 0.138-0.197 0.16-0.24 0.087-0.108 0.139-0.247 0.139-0.399 0-0.079-0.014-0.155-0.041-0.226-0.102-0.272-0.052-0.558 0.201-0.776 0.246-0.211 0.579-0.209 0.76-0.080 0.101 0.071 0.227 0.113 0.363 0.113 0.109 0 0.211-0.027 0.3-0.075-0 0.002 0.003 0.002 0.007 0.002s0.007-0 0.011-0c-0.062 0.018 0.003 0.003 0.064-0.021 0.199-0.050 0.377-0.228 0.435-0.454 0.050-0.2 0.309-0.404 0.601-0.404zM18.56 24.5v5.74l-2.24-1.34c-0.092-0.054-0.202-0.086-0.32-0.086s-0.228 0.032-0.323 0.087l-2.237 1.338v-5.080c0.151 0.143 0.327 0.26 0.54 0.34 0.635 0.238 1.245 0.009 1.74-0.34 0.005-0.003 0.015 0.003 0.020 0 0.004 0.003 0.016-0.003 0.020 0 0.308 0.236 0.678 0.44 1.14 0.44 0.114 0 0.363-0.002 0.66-0.12 0.010-0.011 0.027-0.015 0.040-0.020 0.018-0.008 0.021 0.009 0.040 0v-0.020c0.421-0.185 0.735-0.524 0.92-0.94z"></path>
</svg>
