<?xml version="1.0" encoding="utf-8"?>
<!-- Generated by IcoMoon.io -->
<!DOCTYPE svg PUBLIC "-//W3C//DTD SVG 1.1//EN" "http://www.w3.org/Graphics/SVG/1.1/DTD/svg11.dtd">
<svg version="1.1" xmlns="http://www.w3.org/2000/svg" xmlns:xlink="http://www.w3.org/1999/xlink" width="32" height="32" viewBox="0 0 32 32">
<path fill="#444444" d="M8.32 0.040c-2.802 0-5.080 2.278-5.080 5.080s2.278 5.080 5.080 5.080c2.802 0 5.080-2.278 5.080-5.080s-2.278-5.080-5.080-5.080zM23.68 0.040c-2.802 0-5.080 2.278-5.080 5.080s2.278 5.080 5.080 5.080c2.802 0 5.080-2.278 5.080-5.080s-2.278-5.080-5.080-5.080zM8.32 1.24c2.146 0 3.88 1.734 3.88 3.88s-1.734 3.88-3.88 3.88c-2.146 0-3.88-1.734-3.88-3.88s1.734-3.88 3.88-3.88zM23.68 1.24c2.146 0 3.88 1.734 3.88 3.88s-1.734 3.88-3.88 3.88c-2.146 0-3.88-1.734-3.88-3.88s1.734-3.88 3.88-3.88zM8.32 10.92c-4.785 0-8.28 3.568-8.28 7.060v13.38c0.003 0.33 0.27 0.597 0.6 0.6h8.96c0.33-0.003 0.597-0.27 0.6-0.6v-0.58c0-1.504 0.81-2.745 2.16-3.42 1.092-0.546 2.528-0.52 3.64-0.52s2.465-0.040 3.64 0.52c0.003 0 0.006 0 0.010 0s0.007-0 0.011-0c1.319 0.605 2.139 1.916 2.139 3.42v0.58c0.003 0.33 0.27 0.597 0.6 0.6h8.96c0.33-0.003 0.597-0.27 0.6-0.6v-13.38c0-3.492-3.495-7.060-8.28-7.060-2.846 0-4.866 0.658-6.18 1.34-0.685 0.356-1.175 0.725-1.5 1-0.325-0.275-0.815-0.644-1.5-1-1.314-0.682-3.334-1.34-6.18-1.34zM8.32 12.12c2.658 0 4.47 0.623 5.62 1.22s1.6 1.14 1.6 1.14c0.112 0.13 0.276 0.212 0.46 0.212s0.348-0.082 0.459-0.211c0.001-0.001 0.45-0.543 1.601-1.141s2.962-1.22 5.62-1.22c4.175 0 7.080 3.208 7.080 5.86v12.78h-7.76c-0.008-1.944-1.094-3.7-2.84-4.5-1.513-0.72-3.096-0.62-4.16-0.62s-2.712-0.094-4.18 0.64c-1.716 0.858-2.812 2.537-2.82 4.48h-7.76v-12.78c0-2.652 2.905-5.86 7.080-5.86zM16 16.040c-2.442 0-4.44 1.998-4.44 4.44s1.998 4.44 4.44 4.44c2.442 0 4.44-1.998 4.44-4.44s-1.998-4.44-4.44-4.44zM16 17.24c1.782 0 3.24 1.458 3.24 3.24s-1.458 3.24-3.24 3.24c-1.782 0-3.24-1.458-3.24-3.24s1.458-3.24 3.24-3.24z"></path>
</svg>
