<?xml version="1.0" encoding="utf-8"?>
<!-- Generated by IcoMoon.io -->
<!DOCTYPE svg PUBLIC "-//W3C//DTD SVG 1.1//EN" "http://www.w3.org/Graphics/SVG/1.1/DTD/svg11.dtd">
<svg version="1.1" xmlns="http://www.w3.org/2000/svg" xmlns:xlink="http://www.w3.org/1999/xlink" width="32" height="32" viewBox="0 0 32 32">
<path fill="#444444" d="M16 0.64c-8.475 0-15.36 6.885-15.36 15.36s6.885 15.36 15.36 15.36c8.475 0 15.36-6.885 15.36-15.36s-6.885-15.36-15.36-15.36zM16 1.92c1.348 0 2.646 0.187 3.88 0.54l-3.86 1.66-3.88-1.66c1.228-0.349 2.519-0.54 3.86-0.54zM10.36 3.1l5.020 2.14v4.16l-5.96 4.36-3.4-1.66-0.46-5.52c1.329-1.471 2.958-2.674 4.8-3.48zM21.66 3.1c1.852 0.814 3.489 2.034 4.82 3.52l-0.5 5.5-3.22 1.74-6.1-4.46v-4.18l5-2.12zM4.4 8.020l0.38 4.28-2.84 3.26c0.086-2.795 0.977-5.386 2.46-7.54zM27.64 8.060c1.457 2.134 2.327 4.7 2.42 7.46l-2.8-3.2 0.38-4.26zM16.020 10.52l5.8 4.24-2.22 6.82h-7.16l-2.22-6.84 5.8-4.22zM5.58 13.32l3.36 1.64 2.3 7.12-1.98 2.22-5.46-1.26c-0.969-1.677-1.595-3.576-1.8-5.6l3.58-4.12zM26.46 13.32l3.54 4.080c-0.202 2.048-0.837 3.966-1.82 5.66l-5.4 1.24-1.98-2.22 2.22-6.92 3.44-1.84zM12.26 22.86h7.52l2 2.24-2.8 4.66c-0.961 0.207-1.957 0.32-2.98 0.32-1.008 0-1.992-0.099-2.94-0.3l-2.8-4.68 2-2.24zM4.88 24.62l4.18 0.96 2.2 3.68c-2.55-0.911-4.752-2.541-6.38-4.64zM27.12 24.62c-1.616 2.082-3.795 3.705-6.32 4.62l2.18-3.66 4.14-0.96z"></path>
</svg>
