<?xml version="1.0" encoding="utf-8"?>
<!-- Generated by IcoMoon.io -->
<!DOCTYPE svg PUBLIC "-//W3C//DTD SVG 1.1//EN" "http://www.w3.org/Graphics/SVG/1.1/DTD/svg11.dtd">
<svg version="1.1" xmlns="http://www.w3.org/2000/svg" xmlns:xlink="http://www.w3.org/1999/xlink" width="32" height="32" viewBox="0 0 32 32">
<path fill="#444444" d="M18.44 0c-0.28 0.051-0.497 0.287-0.52 0.578l-0.12 1.442h-3.9l-0.14-1.42c-0.041-0.318-0.31-0.56-0.635-0.56-0.009 0-0.017 0-0.026 0.001l-4.699 0.2c-0.338 0.019-0.605 0.298-0.605 0.639 0 0.029 0.002 0.057 0.005 0.084l0.14 1.317-4.3 0.78c-0.301 0.056-0.526 0.317-0.526 0.63 0 0.032 0.002 0.063 0.007 0.094l1.16 7.737h-1.72c-0.009-0-0.019-0.001-0.030-0.001s-0.021 0-0.031 0.001c-0.328 0.028-0.585 0.303-0.585 0.638 0 0.065 0.010 0.128 0.028 0.187l5.379 19.195c0.080 0.268 0.325 0.46 0.614 0.46 0.002 0 0.004 0 0.006-0h16.12c0.002 0 0.004 0 0.006 0 0.289 0 0.534-0.192 0.613-0.456l5.381-19.205c0.016-0.054 0.026-0.116 0.026-0.18 0-0.354-0.287-0.64-0.64-0.64-0.002 0-0.004 0-0.006 0h-1.98l1.060-5.76c0.008-0.037 0.012-0.080 0.012-0.124 0-0.33-0.249-0.601-0.569-0.636l-4.423-0.48 0.3-3.3c0.001-0.013 0.002-0.029 0.002-0.045 0-0.326-0.243-0.595-0.558-0.635l-4.663-0.54c-0.027-0.004-0.058-0.006-0.090-0.006s-0.063 0.002-0.093 0.007zM12.54 1.34l1.64 15.76c-1.65-0.333-2.812-1.093-3.66-1.94l-1.24-12.24c0-0.006 0-0.013 0-0.020s-0-0.014-0-0.021l0-0.039c0.001-0.011 0.001-0.024 0.001-0.037 0-0.058-0.008-0.114-0.022-0.168l-0.119-1.135 3.4-0.16zM19.12 1.36l3.4 0.38-1.28 13.64c-0.819 0.75-1.896 1.413-3.38 1.72l1.26-15.74zM14.040 3.3h3.66l-1.12 13.94c-0.191 0.011-0.378 0.040-0.58 0.040-0.181 0-0.348-0.011-0.52-0.020l-1.44-13.96zM8.060 3.56l0.98 9.54c-0.324-0.635-0.48-1.1-0.48-1.1-0.074-0.278-0.323-0.48-0.62-0.48-0 0-0 0-0 0h-2.36l-1.1-7.32 3.58-0.64zM23.42 5.78l3.72 0.42-0.98 5.32h-2.1c-0 0-0 0-0 0-0.297 0-0.546 0.202-0.619 0.476-0.001 0.004-0.202 0.709-0.761 1.624l0.74-7.84zM3.4 12.8h4.1c0.176 0.509 0.562 1.489 1.54 2.66 0.085 0.102 0.187 0.198 0.28 0.3 0.032 0.14 0.163 0.297 0.336 0.378 1.345 1.297 3.403 2.422 6.344 2.422 3.444 0 5.667-1.551 6.96-3.1 0.978-1.171 1.364-2.151 1.54-2.66h4.1l-5.040 17.92h-15.12l-5.040-17.92z"></path>
</svg>
