<?xml version="1.0" encoding="utf-8"?>
<!-- Generated by IcoMoon.io -->
<!DOCTYPE svg PUBLIC "-//W3C//DTD SVG 1.1//EN" "http://www.w3.org/Graphics/SVG/1.1/DTD/svg11.dtd">
<svg version="1.1" xmlns="http://www.w3.org/2000/svg" xmlns:xlink="http://www.w3.org/1999/xlink" width="32" height="32" viewBox="0 0 32 32">
<path fill="#444444" d="M16 0c-3.726 0-6.457 0.97-8.26 2.66s-2.62 4.055-2.62 6.68c0 2.164 0.333 4.216 0.46 4.92-0.296 0.311-0.46 0.782-0.46 1.3 0 0.607 0.070 1.206 0.4 1.74 0.267 0.433 0.755 0.727 1.32 0.88 0.864 1.936 1.94 3.875 3.38 5.38 1.506 1.574 3.439 2.68 5.78 2.68s4.274-1.106 5.78-2.68c1.44-1.505 2.516-3.444 3.38-5.38 0.565-0.153 1.053-0.447 1.32-0.88 0.33-0.534 0.4-1.133 0.4-1.74 0-0.505-0.148-0.965-0.42-1.28 0.057-0.415 0.42-3.136 0.42-5.58 0-1.201-0.016-2.705-0.8-3.98-0.737-1.199-2.21-2.021-4.54-2.12-0.16-0.312-0.413-0.719-0.92-1.16-0.854-0.742-2.319-1.44-4.62-1.44zM16 1.28c2.050 0 3.162 0.582 3.78 1.12s0.72 0.98 0.72 0.98c0.080 0.268 0.325 0.46 0.614 0.46 0.002 0 0.004 0 0.006-0 2.328 0 3.316 0.675 3.86 1.56s0.62 2.133 0.62 3.3c0 2.107-0.284 4.351-0.38 5.1-0.13 0.005-0.261 0.018-0.38 0.040-0.283 0.053-0.291 0.109-0.52 0.2v-1.88c0-1.183-0.111-1.909-0.38-2.46s-0.71-0.843-1-1.040c-0.29-0.197-0.495-0.334-0.74-0.76s-0.499-1.171-0.7-2.5c-0.049-0.309-0.314-0.542-0.632-0.542-0.017 0-0.033 0.001-0.050 0.002-0.285 0.020-0.523 0.235-0.577 0.516-0.103 0.51-0.314 0.812-0.621 1.064s-0.748 0.433-1.3 0.56c-1.103 0.253-2.615 0.247-4.14 0.3s-3.069 0.171-4.34 0.84c-1.271 0.669-2.16 1.998-2.16 4.020v1.9c-0.229-0.087-0.237-0.151-0.52-0.2-0.112-0.020-0.237-0.035-0.36-0.040-0.144-0.855-0.4-2.668-0.4-4.48 0-2.367 0.691-4.346 2.2-5.76s3.893-2.3 7.4-2.3zM20.7 7.14c0.14 0.447 0.228 1.102 0.4 1.4 0.361 0.628 0.81 0.969 1.12 1.18s0.431 0.277 0.56 0.54c0.129 0.263 0.26 0.811 0.26 1.9v2.82c0.008 0.347 0.291 0.626 0.64 0.626 0.118 0 0.228-0.032 0.323-0.087-0.003 0.002 0.604-0.33 1.077-0.418 0.201-0.038 0.324-0.020 0.38 0 0.010 0.004 0.036 0.017 0.040 0.020 0.029 0.018 0.1 0.041 0.1 0.44 0 0.481-0.086 0.862-0.22 1.080s-0.281 0.332-0.74 0.38c-0.223 0.017-0.425 0.167-0.518 0.376-0.848 1.948-1.94 3.882-3.282 5.284s-2.893 2.28-4.84 2.28c-1.947 0-3.498-0.878-4.84-2.28s-2.433-3.336-3.28-5.28c-0.082-0.2-0.28-0.354-0.517-0.38-0.462-0.049-0.608-0.162-0.743-0.38s-0.22-0.599-0.22-1.080c0-0.379 0.068-0.4 0.1-0.42s0.182-0.062 0.42-0.020c0.477 0.083 1.080 0.42 1.080 0.42 0.092 0.054 0.202 0.086 0.32 0.086 0.354 0 0.64-0.287 0.64-0.64 0-0.002 0-0.004-0-0.006v-2.82c0-1.69 0.559-2.415 1.48-2.9s2.317-0.629 3.8-0.68c1.483-0.051 3.035-0.011 4.38-0.32 0.672-0.154 1.301-0.394 1.82-0.82 0.101-0.083 0.17-0.203 0.26-0.3zM10.58 25.64c-0.215 0.024-0.418 0.097-0.56 0.22-0.284 0.246-0.42 0.59-0.42 0.96v4.020c0 0.37 0.157 0.734 0.44 0.96s0.715 0.306 1.080 0.16l0.020-0.020h0.020l2.92-1.4c0.184 0.107 0.404 0.18 0.64 0.18h2.56c0.233 0 0.463-0.061 0.66-0.18l2.9 1.4h0.020l0.020 0.020c0.365 0.146 0.797 0.066 1.080-0.16s0.44-0.59 0.44-0.96v-4.020c0-0.37-0.136-0.714-0.42-0.96-0.142-0.123-0.345-0.196-0.56-0.22-0.193-0.021-0.385 0.012-0.56 0.1l-0.020-0.020-2.84 1.36c-0.214-0.135-0.469-0.2-0.72-0.2h-2.56c-0.258 0-0.509 0.076-0.72 0.22l-2.84-1.38-0.020 0.020c-0.175-0.088-0.367-0.121-0.56-0.1zM10.88 27.020l2.56 1.22v1.18l-2.56 1.22v-3.62zM21.12 27.020v3.62l-2.56-1.22v-1.18l2.56-1.22zM14.72 28.16h2.56v1.28h-2.56v-1.28z"></path>
</svg>
