<?xml version="1.0" encoding="utf-8"?>
<!-- Generated by IcoMoon.io -->
<!DOCTYPE svg PUBLIC "-//W3C//DTD SVG 1.1//EN" "http://www.w3.org/Graphics/SVG/1.1/DTD/svg11.dtd">
<svg version="1.1" xmlns="http://www.w3.org/2000/svg" xmlns:xlink="http://www.w3.org/1999/xlink" width="32" height="32" viewBox="0 0 32 32">
<path fill="#444444" d="M8.96 3.84c-4.172 0-7.542 3.317-7.66 7.46l-1.18 1.64c-0.073 0.102-0.116 0.23-0.116 0.368 0 0.209 0.1 0.394 0.255 0.511 0.324 0.243 0.667 0.432 1.022 0.581v2.6c-0.764 0.443-1.28 1.253-1.28 2.2s0.516 1.757 1.28 2.2v3.56c0 1.757 1.443 3.2 3.2 3.2h23.040c1.757 0 3.2-1.443 3.2-3.2v-3.56c0.764-0.443 1.28-1.253 1.28-2.2s-0.516-1.757-1.28-2.2v-2.54c0.407-0.155 0.795-0.366 1.16-0.64 0.154-0.118 0.253-0.302 0.253-0.51 0-0.148-0.050-0.284-0.134-0.392l-1.299-1.639c-0.129-4.133-3.495-7.44-7.66-7.44h-14.080zM8.96 5.12h14.080c3.345 0 6.044 2.504 6.36 5.76h-26.8c0.316-3.256 3.015-5.76 6.36-5.76zM11.2 5.76c-0.53 0-0.96 0.43-0.96 0.96s0.43 0.96 0.96 0.96c0.53 0 0.96-0.43 0.96-0.96s-0.43-0.96-0.96-0.96zM8 6.4c-0.53 0-0.96 0.43-0.96 0.96s0.43 0.96 0.96 0.96c0.53 0 0.96-0.43 0.96-0.96s-0.43-0.96-0.96-0.96zM9.92 8.32c-0.53 0-0.96 0.43-0.96 0.96s0.43 0.96 0.96 0.96c0.53 0 0.96-0.43 0.96-0.96s-0.43-0.96-0.96-0.96zM2.26 12.16h27.5l0.76 0.96c-1.216 0.611-2.627 0.53-3.76-0.32-0.105-0.078-0.237-0.125-0.381-0.125-0.118 0-0.228 0.032-0.322 0.087l-1.017 0.578c-0.003-0-0.006-0-0.010-0s-0.007 0-0.011 0c-1.217 0.72-2.616 0.708-3.759 0-0.003-0-0.006-0-0.010-0s-0.007 0-0.011 0l-1.019-0.58c-0.092-0.053-0.201-0.085-0.319-0.085-0.102 0-0.199 0.024-0.285 0.067l-1.896 0.958h-0.020c-1.033 0.483-2.227 0.483-3.26 0h-0.020l-1.9-0.96c-0.082-0.041-0.179-0.065-0.281-0.065-0.117 0-0.227 0.032-0.322 0.087l-1.037 0.578c-1.218 0.72-2.617 0.708-3.76 0-0.003-0-0.006-0-0.010-0s-0.007 0-0.011 0l-1.019-0.58c-0.092-0.054-0.202-0.085-0.319-0.085-0.143 0-0.276 0.047-0.382 0.127-1.141 0.856-2.576 0.929-3.798 0.299l0.68-0.94zM5.74 14.020l0.72 0.4-0.020 0.020c1.545 0.956 3.482 0.944 5.080 0l0.72-0.4 1.62 0.8c-0.093-0.113-0.043-0.040 0.020 0.020 1.389 0.658 2.992 0.658 4.38 0-0.113 0.093-0.040 0.043 0.020-0.020l1.62-0.8 0.7 0.4h0.020c1.542 0.946 3.447 0.941 5.040 0l0.72-0.42c0.937 0.578 2.012 0.813 3.060 0.72v1.9h-26.88v-1.9c1.085 0.128 2.202-0.118 3.18-0.72zM2.56 17.92h26.88c0.762 0 1.28 0.518 1.28 1.28s-0.518 1.28-1.28 1.28h-26.88c-0.762 0-1.28-0.518-1.28-1.28s0.518-1.28 1.28-1.28zM2.56 21.76h26.88v3.2c0 1.059-0.861 1.92-1.92 1.92h-23.040c-1.059 0-1.92-0.861-1.92-1.92v-3.2z"></path>
</svg>
