<?xml version="1.0" encoding="utf-8"?>
<!-- Generated by IcoMoon.io -->
<!DOCTYPE svg PUBLIC "-//W3C//DTD SVG 1.1//EN" "http://www.w3.org/Graphics/SVG/1.1/DTD/svg11.dtd">
<svg version="1.1" xmlns="http://www.w3.org/2000/svg" xmlns:xlink="http://www.w3.org/1999/xlink" width="32" height="32" viewBox="0 0 32 32">
<path fill="#444444" d="M16 7.68c-1.406 0-2.56 1.154-2.56 2.56-0 0.003-0 0.006-0 0.009 0 0.354 0.287 0.64 0.64 0.64s0.64-0.287 0.64-0.64c0-0.003-0-0.006-0-0.010 0-0.714 0.565-1.28 1.28-1.28s1.28 0.565 1.28 1.28c0 0.767-0.275 1.010-0.72 1.38-0.222 0.185-0.495 0.359-0.74 0.64s-0.46 0.704-0.46 1.18v0.88c-0.348 0.156-3.165 1.412-6.4 2.88-3.429 1.556-6.88 3.129-7.32 3.34-0.313 0.15-0.666 0.308-1 0.58s-0.64 0.736-0.64 1.28c0 1.053 0.867 1.92 1.92 1.92h28.16c1.053 0 1.92-0.867 1.92-1.92 0-0.553-0.302-1.028-0.64-1.3s-0.696-0.418-1-0.56c-0.82-0.384-13.038-5.911-13.72-6.22v-0.88c0-0.148 0.025-0.209 0.14-0.34s0.322-0.285 0.58-0.5c0.515-0.429 1.2-1.174 1.2-2.36 0-1.406-1.154-2.56-2.56-2.56zM16 15.42c0.478 0.217 13.12 5.962 13.8 6.28 0.317 0.148 0.613 0.281 0.76 0.4s0.16 0.145 0.16 0.3c0 0.362-0.278 0.64-0.64 0.64h-28.16c-0.362 0-0.64-0.278-0.64-0.64 0-0.146 0.013-0.161 0.16-0.28s0.435-0.264 0.76-0.42c0.29-0.139 3.872-1.764 7.3-3.32 3.296-1.496 6.257-2.85 6.5-2.96z"></path>
</svg>
