<?xml version="1.0" encoding="utf-8"?>
<!-- Generated by IcoMoon.io -->
<!DOCTYPE svg PUBLIC "-//W3C//DTD SVG 1.1//EN" "http://www.w3.org/Graphics/SVG/1.1/DTD/svg11.dtd">
<svg version="1.1" xmlns="http://www.w3.org/2000/svg" xmlns:xlink="http://www.w3.org/1999/xlink" width="32" height="32" viewBox="0 0 32 32">
<path fill="#444444" d="M16 0.64c-5.958 0-10.869 4.536-11.46 10.34-0.585 0.19-1.050 0.655-1.24 1.24-0.913 0.183-1.705 0.808-2.26 1.64-0.662 0.994-1.040 2.299-1.040 3.74s0.378 2.746 1.040 3.74c0.555 0.832 1.347 1.457 2.26 1.64 0.25 0.77 0.971 1.34 1.82 1.34 1.053 0 1.92-0.867 1.92-1.92v-9.6c0-0.796-0.503-1.471-1.2-1.76 0.561-5.129 4.879-9.12 10.16-9.12s9.599 3.991 10.16 9.12c-0.697 0.289-1.2 0.964-1.2 1.76v9.6c0 1.053 0.867 1.92 1.92 1.92 0.849 0 1.57-0.57 1.82-1.34 0.913-0.183 1.705-0.808 2.26-1.64 0.662-0.994 1.040-2.3 1.040-3.74s-0.378-2.746-1.040-3.74c-0.555-0.832-1.347-1.457-2.26-1.64-0.19-0.585-0.655-1.050-1.24-1.24-0.591-5.804-5.502-10.34-11.46-10.34zM5.12 12.16c0.36 0 0.64 0.28 0.64 0.64v9.6c0 0.36-0.28 0.64-0.64 0.64s-0.64-0.28-0.64-0.64v-9.6c0-0.36 0.28-0.64 0.64-0.64zM26.88 12.16c0.36 0 0.64 0.28 0.64 0.64v9.6c0 0.36-0.28 0.64-0.64 0.64s-0.64-0.28-0.64-0.64v-9.6c0-0.36 0.28-0.64 0.64-0.64zM3.2 13.58v8.040c-0.398-0.169-0.775-0.492-1.1-0.98-0.496-0.744-0.82-1.83-0.82-3.040s0.324-2.296 0.82-3.040c0.325-0.488 0.702-0.811 1.1-0.98zM28.8 13.58c0.398 0.169 0.775 0.492 1.1 0.98 0.496 0.743 0.82 1.829 0.82 3.040s-0.324 2.296-0.82 3.040c-0.325 0.488-0.702 0.811-1.1 0.98v-8.040z"></path>
</svg>
