<?xml version="1.0" encoding="utf-8"?>
<!-- Generated by IcoMoon.io -->
<!DOCTYPE svg PUBLIC "-//W3C//DTD SVG 1.1//EN" "http://www.w3.org/Graphics/SVG/1.1/DTD/svg11.dtd">
<svg version="1.1" xmlns="http://www.w3.org/2000/svg" xmlns:xlink="http://www.w3.org/1999/xlink" width="32" height="32" viewBox="0 0 32 32">
<path fill="#444444" d="M16 30.784c-0.128 0-0.32-0.064-0.384-0.128 0 0-4.8-3.968-6.784-5.632-4.352-3.648-8.832-7.36-8.832-13.312 0-5.504 3.776-9.344 9.216-9.344 2.944 0 5.376 1.856 6.784 3.328 1.408-1.408 3.84-3.328 6.784-3.328 5.44 0 9.216 3.84 9.216 9.344 0 5.952-4.48 9.664-8.832 13.312-2.048 1.664-6.72 5.568-6.784 5.632s-0.256 0.128-0.384 0.128zM9.216 3.648c-4.672 0-7.936 3.328-7.936 8.064 0 5.376 4.224 8.896 8.32 12.288 1.664 1.344 5.184 4.288 6.4 5.312 1.216-1.024 4.736-3.904 6.4-5.312 4.096-3.392 8.32-6.976 8.32-12.288 0-4.736-3.264-8.064-7.936-8.064-2.816 0-5.184 2.112-6.336 3.392-0.256 0.256-0.704 0.256-0.96 0-1.088-1.28-3.456-3.392-6.272-3.392z"></path>
<path fill="#444444" d="M20.352 19.136c-0.128 0-0.32-0.064-0.448-0.192l-7.68-6.976c-0.256-0.256-0.256-0.64-0.064-0.896 0.256-0.256 0.64-0.256 0.896-0.064l7.168 6.464 10.496-16.192c0.192-0.32 0.576-0.384 0.896-0.192s0.384 0.576 0.192 0.832l-10.88 16.896c-0.128 0.128-0.256 0.256-0.448 0.256-0.064 0.064-0.064 0.064-0.128 0.064z"></path>
</svg>
