<?xml version="1.0" encoding="utf-8"?>
<!-- Generated by IcoMoon.io -->
<!DOCTYPE svg PUBLIC "-//W3C//DTD SVG 1.1//EN" "http://www.w3.org/Graphics/SVG/1.1/DTD/svg11.dtd">
<svg version="1.1" xmlns="http://www.w3.org/2000/svg" xmlns:xlink="http://www.w3.org/1999/xlink" width="32" height="32" viewBox="0 0 32 32">
<path fill="#444444" d="M15.88 0.040c-0.098 0.009-0.239 0.086-0.339 0.199l-15.301 15.921c-0.108 0.115-0.174 0.27-0.174 0.44 0 0.356 0.288 0.644 0.644 0.644 0.185 0 0.352-0.078 0.47-0.204l2.020-2.1v17.060h25.6v-17.060l2.020 2.1c0.118 0.126 0.285 0.204 0.47 0.204 0.356 0 0.644-0.288 0.644-0.644 0-0.17-0.066-0.325-0.174-0.44l-15.3-15.92c-0.117-0.129-0.286-0.209-0.473-0.209-0.038 0-0.075 0.003-0.111 0.010zM16 1.6l11.52 12v17.12h-7.040v-13.44h-8.96v13.44h-7.040v-17.12l11.52-12zM22.4 3.2v1.94l1.28 1.32v-1.98h1.28v3.32l1.28 1.34v-5.94h-3.84zM12.8 18.56h6.4v12.16h-6.4v-12.16z"></path>
</svg>
