<?xml version="1.0" encoding="utf-8"?>
<!-- Generated by IcoMoon.io -->
<!DOCTYPE svg PUBLIC "-//W3C//DTD SVG 1.1//EN" "http://www.w3.org/Graphics/SVG/1.1/DTD/svg11.dtd">
<svg version="1.1" xmlns="http://www.w3.org/2000/svg" xmlns:xlink="http://www.w3.org/1999/xlink" width="32" height="32" viewBox="0 0 32 32">
<path fill="#444444" d="M16 0c-3.165 0-5.76 2.595-5.76 5.76 0 0.333 0.033 0.644 0.080 0.94-2.27 0.774-3.92 2.938-3.92 5.46 0 1.991 1.050 3.764 2.64 4.8l6.38 14.66c0.104 0.22 0.325 0.369 0.58 0.369s0.476-0.149 0.578-0.365l6.362-14.624c1.608-1.017 2.66-2.799 2.66-4.84 0-2.519-1.653-4.664-3.92-5.44 0.046-0.309 0.080-0.633 0.080-0.96 0-3.165-2.595-5.76-5.76-5.76zM16 1.28c2.467 0 4.48 2.013 4.48 4.48 0 0.189-0.030 0.423-0.060 0.66-0.193-0.020-0.382-0.020-0.58-0.020-0.725 0-1.431 0.139-2.020 0.36-0.243 0.095-0.413 0.328-0.413 0.6 0 0.355 0.288 0.643 0.643 0.643 0.083 0 0.162-0.016 0.234-0.044 0.431-0.162 1.001-0.279 1.556-0.279 2.467 0 4.48 2.013 4.48 4.48 0 1.635-0.831 3.016-2.12 3.8 0.049-0.040-0.045 0.021-0.12 0.1-0.45 0.099-2.798 0.58-6.080 0.58-3.001 0-5.223-0.392-5.94-0.54 0.041 0.023-0.041-0.038-0.136-0.078-1.349-0.786-2.244-2.241-2.244-3.862 0-2.467 2.013-4.48 4.48-4.48s4.48 2.013 4.48 4.48c0 0.846-0.228 1.627-0.62 2.3-0.078 0.105-0.125 0.237-0.125 0.38 0 0.354 0.287 0.64 0.64 0.64 0.259 0 0.483-0.154 0.583-0.376 0.505-0.867 0.802-1.87 0.802-2.944 0-3.165-2.595-5.76-5.76-5.76-0.198 0-0.387 0-0.58 0.020-0.034-0.231-0.060-0.457-0.060-0.66 0-2.467 2.013-4.48 4.48-4.48zM10.66 17.48c0.873 0.156 2.16 0.351 3.94 0.42l-2.12 2.12-1.28-1.28-0.54-1.26zM21.34 17.48l-0.54 1.26-1.28 1.3-2.14-2.16c1.79-0.068 3.084-0.243 3.96-0.4zM16 18.32l2.62 2.62-2.6 2.64-2.64-2.66 2.62-2.6zM12.62 21.98l2.5 2.5-0.98 1-1.52-3.5zM19.36 22.020l-1.48 3.42-0.96-0.96 2.44-2.46zM16.020 25.38l1.32 1.32-1.34 3.060-1.32-3.020 1.34-1.36z"></path>
</svg>
