<?xml version="1.0" encoding="utf-8"?>
<!-- Generated by IcoMoon.io -->
<!DOCTYPE svg PUBLIC "-//W3C//DTD SVG 1.1//EN" "http://www.w3.org/Graphics/SVG/1.1/DTD/svg11.dtd">
<svg version="1.1" xmlns="http://www.w3.org/2000/svg" xmlns:xlink="http://www.w3.org/1999/xlink" width="32" height="32" viewBox="0 0 32 32">
<path fill="#444444" d="M0.56 1.28c-0.317 0.041-0.56 0.31-0.56 0.635 0 0.002 0 0.004 0 0.005v24.32c0 0.001 0 0.003 0 0.004 0 0.252 0.145 0.469 0.356 0.574l7.684 3.842c0.082 0.041 0.178 0.064 0.28 0.064s0.198-0.024 0.284-0.066l7.416-3.718 8.040 3.72c0.076 0.035 0.166 0.055 0.259 0.055 0.11 0 0.213-0.028 0.304-0.077l7.037-3.838c0.202-0.108 0.338-0.318 0.34-0.56v-24.32c-0.003-0.351-0.288-0.635-0.64-0.635-0.11 0-0.213 0.028-0.303 0.076l-6.757 3.678-8.040-3.7c-0.079-0.038-0.172-0.060-0.27-0.060s-0.191 0.022-0.274 0.061l-7.396 3.698-7.4-3.7c-0.082-0.041-0.179-0.065-0.281-0.065-0.028 0-0.055 0.002-0.082 0.005zM16.64 2.9l7.040 3.26v22.92l-7.040-3.24v-22.94zM1.28 2.96l6.4 3.2v22.88l-6.4-3.2v-22.88zM15.36 2.96v22.88l-6.4 3.2v-22.88l6.4-3.2zM30.72 3v22.86l-5.76 3.14v-22.86l5.76-3.14z"></path>
</svg>
