<?xml version="1.0" encoding="utf-8"?>
<!-- Generated by IcoMoon.io -->
<!DOCTYPE svg PUBLIC "-//W3C//DTD SVG 1.1//EN" "http://www.w3.org/Graphics/SVG/1.1/DTD/svg11.dtd">
<svg version="1.1" xmlns="http://www.w3.org/2000/svg" xmlns:xlink="http://www.w3.org/1999/xlink" width="27" height="32" viewBox="0 0 27 32">
<path fill="#444444" d="M21.184 32h-14.976c-0.128 0-0.32-0.064-0.384-0.128-0.384-0.32-0.448-0.704-0.384-0.896 0.128-0.768 1.152-1.216 2.752-1.92 1.344-0.576 3.584-1.536 3.584-2.368v-6.976l-11.648-18.752c-0.128-0.192-0.128-0.448 0-0.64 0.064-0.192 0.256-0.32 0.512-0.32h26.112c0.256 0 0.448 0.128 0.576 0.32s0.128 0.448 0 0.64l-11.712 18.752v6.912c0 0.832 2.304 1.856 3.648 2.432 1.664 0.704 2.624 1.152 2.752 1.92 0 0.192 0 0.576-0.384 0.896-0.192 0.064-0.32 0.128-0.448 0.128zM7.488 30.72h12.416c-0.384-0.192-0.768-0.32-1.152-0.512-2.048-0.896-4.416-1.92-4.416-3.584v-6.464h-1.28v6.464c0 1.664-2.304 2.688-4.416 3.584-0.32 0.128-0.768 0.32-1.152 0.512zM12.8 18.88h1.856l6.592-10.56h-15.040l6.592 10.56zM5.44 7.104h16.512c0 0 0.064 0 0.064 0l3.584-5.824h-23.808l3.648 5.824z"></path>
</svg>
