<?xml version="1.0" encoding="utf-8"?>
<!-- Generated by IcoMoon.io -->
<!DOCTYPE svg PUBLIC "-//W3C//DTD SVG 1.1//EN" "http://www.w3.org/Graphics/SVG/1.1/DTD/svg11.dtd">
<svg version="1.1" xmlns="http://www.w3.org/2000/svg" xmlns:xlink="http://www.w3.org/1999/xlink" width="32" height="32" viewBox="0 0 32 32">
<path fill="#444444" d="M0 4.48v23.040h32v-23.040h-32zM1.28 5.76h29.44v1.6c-0.249 0.217-11.472 10.007-12.52 10.92l-0.060 0.060c-0.83 0.723-1.681 0.86-2.14 0.86s-1.31-0.137-2.14-0.86c-0.239-0.208-1.947-1.684-3.18-2.76-3.656-3.191-9.212-8.056-9.4-8.22v-1.6zM1.28 9.060c1.11 0.969 5.048 4.395 8.4 7.32l-8.4 6.64v-13.96zM30.72 9.060v13.96l-8.4-6.64c3.352-2.925 7.29-6.351 8.4-7.32zM10.66 17.24c0.778 0.679 2.182 1.905 2.36 2.060l0.020 0.020c1.081 0.93 2.232 1.16 2.96 1.16 0.733 0 1.891-0.232 2.98-1.18 0.179-0.156 1.596-1.376 2.38-2.060l9.36 7.4v1.6h-29.44v-1.6l9.38-7.4z"></path>
</svg>
