<?xml version="1.0" encoding="utf-8"?>
<!-- Generated by IcoMoon.io -->
<!DOCTYPE svg PUBLIC "-//W3C//DTD SVG 1.1//EN" "http://www.w3.org/Graphics/SVG/1.1/DTD/svg11.dtd">
<svg version="1.1" xmlns="http://www.w3.org/2000/svg" xmlns:xlink="http://www.w3.org/1999/xlink" width="32" height="32" viewBox="0 0 32 32">
<path fill="#444444" d="M5.12 2.56c-1.406 0-2.56 1.154-2.56 2.56v5.76h1.28v-5.76c0-0.715 0.565-1.28 1.28-1.28h21.76c0.715 0 1.28 0.565 1.28 1.28v9.6h1.28v-9.6c0-1.406-1.154-2.56-2.56-2.56h-21.76zM5.64 5.12c-0.298 0.058-0.52 0.318-0.52 0.629 0 0.004 0 0.008 0 0.012v5.119h1.28v-4.48h19.2v8.32h1.28v-8.96c-0-0.353-0.287-0.64-0.64-0.64h-20.48c-0.009-0-0.019-0.001-0.030-0.001s-0.021 0-0.031 0.001c-0.008-0-0.018-0.001-0.029-0.001s-0.021 0-0.031 0.001zM1.28 11.52c-0.7 0-1.28 0.58-1.28 1.28v15.36c0 0.7 0.58 1.28 1.28 1.28h12.16c0.7 0 1.28-0.58 1.28-1.28v-15.36c0-0.7-0.58-1.28-1.28-1.28h-12.16zM1.28 12.8h12.16v15.36h-12.16v-15.36zM2.44 13.44c-0.298 0.058-0.52 0.318-0.52 0.629 0 0.004 0 0.008 0 0.012v11.519c0 0.353 0.287 0.64 0.64 0.64h9.6c0.353-0 0.64-0.287 0.64-0.64v-11.52c-0-0.353-0.287-0.64-0.64-0.64h-9.6c-0.009-0-0.019-0.001-0.030-0.001s-0.021 0-0.031 0.001c-0.007-0.001-0.018-0.001-0.029-0.001s-0.021 0-0.031 0.001zM3.2 14.72h8.32v10.24h-8.32v-10.24zM23.68 15.36c-0.7 0-1.28 0.58-1.28 1.28v11.52c0 0.7 0.58 1.28 1.28 1.28h7.040c0.7 0 1.28-0.58 1.28-1.28v-11.52c0-0.7-0.58-1.28-1.28-1.28h-7.040zM23.68 16.64h7.040v11.52h-7.040v-11.52zM24.84 17.28c-0.298 0.058-0.52 0.318-0.52 0.629 0 0.004 0 0.008 0 0.012v7.679c0 0.353 0.287 0.64 0.64 0.64h4.48c0.353-0 0.64-0.287 0.64-0.64v-7.68c-0-0.353-0.287-0.64-0.64-0.64h-4.48c-0.009-0-0.019-0.001-0.030-0.001s-0.021 0-0.031 0.001c-0.008-0-0.018-0.001-0.029-0.001s-0.021 0-0.031 0.001zM25.6 18.56h3.2v6.4h-3.2v-6.4zM15.36 20.48v1.28h6.4v-1.28h-6.4zM18.56 22.4v3.2h3.2v-1.28h-1.92v-0.64h1.92v-1.28h-3.2zM15.36 26.24v1.28h6.4v-1.28h-6.4zM7.36 26.56c-0.353 0-0.64 0.287-0.64 0.64s0.287 0.64 0.64 0.64c0.353 0 0.64-0.287 0.64-0.64s-0.287-0.64-0.64-0.64zM27.2 26.56c-0.353 0-0.64 0.287-0.64 0.64s0.287 0.64 0.64 0.64c0.353 0 0.64-0.287 0.64-0.64s-0.287-0.64-0.64-0.64z"></path>
</svg>
