<?xml version="1.0" encoding="utf-8"?>
<!-- Generated by IcoMoon.io -->
<!DOCTYPE svg PUBLIC "-//W3C//DTD SVG 1.1//EN" "http://www.w3.org/Graphics/SVG/1.1/DTD/svg11.dtd">
<svg version="1.1" xmlns="http://www.w3.org/2000/svg" xmlns:xlink="http://www.w3.org/1999/xlink" width="32" height="32" viewBox="0 0 32 32">
<path fill="#444444" d="M1.1 1.78c-0.288 0.066-0.5 0.321-0.5 0.625 0 0.005 0 0.011 0 0.016l-0 22.839c0 2.718 1.413 4.25 2.8 4.94s2.76 0.66 2.76 0.66h19.68v-0.060c0.309 0.035 0.64 0.060 0.64 0.060s1.229 0.007 2.46-0.7c1.201-0.69 2.383-2.149 2.44-4.68-0.058 0.096-0.014 0.033 0.018-0.036 0.002-0.018 0.001-0.030 0.002-0.044 0.001-0.015 0.002-0.032 0.002-0.050s-0.001-0.035-0.002-0.052l0-16.058c0-0.003 0-0.006 0-0.010s-0-0.007-0-0.011c0 0.001 0.009-0.749-0.38-1.519s-1.297-1.6-2.72-1.6v-0.020h-6.060v1.28h3.56c-0.077 0.11-0.144 0.21-0.2 0.32-0.39 0.762-0.4 1.52-0.4 1.52v15.52c-0 0.003-0 0.006-0 0.009 0 0.354 0.287 0.64 0.64 0.64s0.64-0.287 0.64-0.64c0-0.003-0-0.006-0-0.010v-15.52c0.001-0.018 0.025-0.481 0.26-0.94 0.24-0.468 0.577-0.88 1.56-0.88 0.98 0 1.319 0.422 1.56 0.9 0.237 0.469 0.279 0.942 0.28 0.96h-0.020v16.060c0 2.277-0.909 3.237-1.82 3.76s-1.82 0.52-1.82 0.52c0 0-1.081-0.015-2.16-0.56s-2.12-1.503-2.12-3.76v-22.84c-0-0.353-0.287-0.64-0.64-0.64h-20.32c-0.021-0.002-0.045-0.004-0.070-0.004s-0.049 0.001-0.073 0.004zM1.88 3.060h19.040v22.2c0 2.105 0.893 3.482 1.94 4.32h-16.7c-0.003-0-0.006-0-0.010-0s-0.007 0-0.011 0c0.001 0-0.274 0.003-0.679-0.060-0.203-0.032-0.427-0.086-0.68-0.16s-0.531-0.166-0.8-0.3c-0.134-0.067-0.269-0.138-0.4-0.22-0.916-0.575-1.7-1.569-1.7-3.58v-22.2zM4.5 7.040c-0.328 0.032-0.583 0.306-0.583 0.64 0 0.355 0.288 0.643 0.643 0.643 0.021 0 0.042-0.001 0.063-0.003l12.617 0c0.003 0 0.006 0 0.009 0 0.354 0 0.64-0.287 0.64-0.64s-0.287-0.64-0.64-0.64c-0.003 0-0.006 0-0.010 0h-12.62c-0.009-0-0.019-0.001-0.030-0.001s-0.021 0-0.031 0.001c-0.008-0-0.018-0.001-0.029-0.001s-0.021 0-0.031 0.001zM4.5 9.6c-0.328 0.032-0.583 0.306-0.583 0.64 0 0.355 0.288 0.643 0.643 0.643 0.021 0 0.042-0.001 0.063-0.003l12.617 0c0.003 0 0.006 0 0.009 0 0.354 0 0.64-0.287 0.64-0.64s-0.287-0.64-0.64-0.64c-0.003 0-0.006 0-0.010 0h-12.62c-0.009-0-0.019-0.001-0.030-0.001s-0.021 0-0.031 0.001c-0.008-0.001-0.018-0.001-0.029-0.001s-0.021 0-0.031 0.001zM4.8 14.72c-0.328 0.032-0.583 0.306-0.583 0.64 0 0.355 0.288 0.643 0.643 0.643 0.021 0 0.042-0.001 0.063-0.003l4.337 0c0.003 0 0.006 0 0.009 0 0.354 0 0.64-0.287 0.64-0.64s-0.287-0.64-0.64-0.64c-0.003 0-0.006 0-0.010 0h-4.34c-0.009-0-0.019-0.001-0.030-0.001s-0.021 0-0.031 0.001c-0.008-0.001-0.018-0.001-0.029-0.001s-0.021 0-0.031 0.001zM12.18 14.72c-0.328 0.032-0.583 0.306-0.583 0.64 0 0.355 0.288 0.643 0.643 0.643 0.021 0 0.042-0.001 0.063-0.003l4.937 0c0.003 0 0.006 0 0.009 0 0.354 0 0.64-0.287 0.64-0.64s-0.287-0.64-0.64-0.64c-0.003 0-0.006 0-0.010 0h-4.94c-0.009-0-0.019-0.001-0.030-0.001s-0.021 0-0.031 0.001c-0.008-0.001-0.018-0.001-0.029-0.001s-0.021 0-0.031 0.001zM4.8 17.28c-0.328 0.032-0.583 0.306-0.583 0.64 0 0.355 0.288 0.643 0.643 0.643 0.021 0 0.042-0.001 0.063-0.003l4.337 0c0.003 0 0.006 0 0.009 0 0.354 0 0.64-0.287 0.64-0.64s-0.287-0.64-0.64-0.64c-0.003 0-0.006 0-0.010 0h-4.34c-0.009-0-0.019-0.001-0.030-0.001s-0.021 0-0.031 0.001c-0.008-0-0.018-0.001-0.029-0.001s-0.021 0-0.031 0.001zM12.18 17.28c-0.328 0.032-0.583 0.306-0.583 0.64 0 0.355 0.288 0.643 0.643 0.643 0.021 0 0.042-0.001 0.063-0.003l4.937 0c0.003 0 0.006 0 0.009 0 0.354 0 0.64-0.287 0.64-0.64s-0.287-0.64-0.64-0.64c-0.003 0-0.006 0-0.010 0h-4.94c-0.009-0-0.019-0.001-0.030-0.001s-0.021 0-0.031 0.001c-0.008-0-0.018-0.001-0.029-0.001s-0.021 0-0.031 0.001zM12.12 19.7c-0.316 0.046-0.556 0.315-0.556 0.64 0 0.357 0.289 0.646 0.646 0.646 0.032 0 0.063-0.002 0.093-0.007l4.937 0c0.003 0 0.006 0 0.009 0 0.354 0 0.64-0.287 0.64-0.64s-0.287-0.64-0.64-0.64c-0.003 0-0.006 0-0.010 0h-4.94c-0.018-0.002-0.039-0.003-0.060-0.003s-0.042 0.001-0.063 0.003c-0.006-0.001-0.017-0.001-0.027-0.001s-0.021 0-0.031 0.001zM4.8 19.84c-0.328 0.032-0.583 0.306-0.583 0.64 0 0.355 0.288 0.643 0.643 0.643 0.021 0 0.042-0.001 0.063-0.003l4.337 0c0.003 0 0.006 0 0.009 0 0.354 0 0.64-0.287 0.64-0.64s-0.287-0.64-0.64-0.64c-0.003 0-0.006 0-0.010 0h-4.34c-0.009-0-0.019-0.001-0.030-0.001s-0.021 0-0.031 0.001c-0.008-0-0.018-0.001-0.029-0.001s-0.021 0-0.031 0.001zM12.12 22.26c-0.316 0.046-0.556 0.315-0.556 0.64 0 0.357 0.289 0.646 0.646 0.646 0.032 0 0.063-0.002 0.093-0.007l4.937 0c0.003 0 0.006 0 0.009 0 0.354 0 0.64-0.287 0.64-0.64s-0.287-0.64-0.64-0.64c-0.003 0-0.006 0-0.010 0h-4.94c-0.018-0.002-0.039-0.003-0.060-0.003s-0.042 0.001-0.063 0.003c-0.006-0.001-0.017-0.001-0.027-0.001s-0.021 0-0.031 0.001zM4.8 22.4c-0.328 0.032-0.583 0.306-0.583 0.64 0 0.355 0.288 0.643 0.643 0.643 0.021 0 0.042-0.001 0.063-0.003l4.337 0c0.003 0 0.006 0 0.009 0 0.354 0 0.64-0.287 0.64-0.64s-0.287-0.64-0.64-0.64c-0.003 0-0.006 0-0.010 0h-4.34c-0.009-0-0.019-0.001-0.030-0.001s-0.021 0-0.031 0.001c-0.008-0-0.018-0.001-0.029-0.001s-0.021 0-0.031 0.001zM12.18 24.66c-0.328 0.032-0.583 0.306-0.583 0.64 0 0.355 0.288 0.643 0.643 0.643 0.021 0 0.042-0.001 0.063-0.003l4.937 0c0.003 0 0.006 0 0.009 0 0.354 0 0.64-0.287 0.64-0.64s-0.287-0.64-0.64-0.64c-0.003 0-0.006 0-0.010 0h-4.94c-0.009-0-0.019-0.001-0.030-0.001s-0.021 0-0.031 0.001c-0.008-0-0.018-0.001-0.029-0.001s-0.021 0-0.031 0.001zM4.8 24.96c-0.328 0.032-0.583 0.306-0.583 0.64 0 0.355 0.288 0.643 0.643 0.643 0.021 0 0.042-0.001 0.063-0.003l4.337 0c0.003 0 0.006 0 0.009 0 0.354 0 0.64-0.287 0.64-0.64s-0.287-0.64-0.64-0.64c-0.003 0-0.006 0-0.010 0h-4.34c-0.009-0-0.019-0.001-0.030-0.001s-0.021 0-0.031 0.001c-0.008-0-0.018-0.001-0.029-0.001s-0.021 0-0.031 0.001z"></path>
</svg>
