<?xml version="1.0" encoding="utf-8"?>
<!-- Generated by IcoMoon.io -->
<!DOCTYPE svg PUBLIC "-//W3C//DTD SVG 1.1//EN" "http://www.w3.org/Graphics/SVG/1.1/DTD/svg11.dtd">
<svg version="1.1" xmlns="http://www.w3.org/2000/svg" xmlns:xlink="http://www.w3.org/1999/xlink" width="32" height="32" viewBox="0 0 32 32">
<path fill="#444444" d="M10.5 0.080c-0.749 0.058-1.453 0.245-2.1 0.56-2.59 1.261-4.15 4.248-4.26 7.4-0 0.006-0 0.013-0 0.021 0 0.354 0.287 0.64 0.64 0.64 0.202 0 0.382-0.094 0.499-0.24 1.891-2.356 4.946-3.131 7.241-2.441-2.356 0.189-4.734 1.056-6.32 2.88-2.151 2.473-2.637 6.6 0.26 12.5 0.103 0.224 0.325 0.376 0.583 0.376 0.331 0 0.603-0.251 0.637-0.573 0.549-4.276 2.244-6.901 4.14-8.543 1.22-1.056 2.516-1.691 3.66-2.060-0.285 8.63-3.006 13.463-5.62 16.18-2.637 2.74-5.12 3.32-5.12 3.32-0.308 0.049-0.541 0.314-0.541 0.632 0 0.354 0.287 0.64 0.64 0.64 0.072 0 0.141-0.012 0.206-0.034-0.005 0.001 2.875-0.686 5.736-3.659s5.749-8.233 6-17.26c0.002-0.021 0.004-0.045 0.004-0.070s-0.001-0.049-0.004-0.073c0.11-0.017 0.218-0.041 0.32-0.057 0.381 0.11 0.759 0.23 1.14 0.36 0.11 0.593 0.634 3.609 0.6 7.42-0.038 4.234-0.827 9.221-3.52 12.28-0.146 0.124-0.239 0.309-0.239 0.514 0 0.372 0.301 0.673 0.673 0.673 0.236 0 0.444-0.121 0.564-0.305 3.078-3.496 3.822-8.759 3.862-13.143 0.027-3.004-0.296-5.531-0.5-6.88 1.513 0.641 2.949 1.467 4.12 2.6 1.862 1.801 3.11 4.302 3.080 8.020-0 0.005-0 0.011-0 0.017 0 0.354 0.287 0.64 0.64 0.64 0.226 0 0.425-0.117 0.539-0.294 2.199-3.364 3.012-6.133 2.862-8.403s-1.308-3.996-2.82-5.16c-1.512-1.164-3.362-1.811-5.080-2.1-0.547-0.092-1.038-0.096-1.54-0.12 0.602-0.193 1.195-0.394 1.98-0.44 2.175-0.128 4.859 0.457 7.22 2.44 0.107 0.082 0.242 0.132 0.389 0.132 0.354 0 0.64-0.287 0.64-0.64 0-0.069-0.011-0.135-0.031-0.197-1.096-3.148-2.538-5.058-4.159-6.075s-3.369-1.093-4.9-0.76c-2.632 0.572-4.437 2.101-4.98 2.58-2.538-2.447-5.015-3.466-7.14-3.3zM11.34 1.32c1.666 0.091 3.616 1.026 5.82 3.3 0.117 0.12 0.28 0.195 0.46 0.195 0.171 0 0.325-0.067 0.44-0.175-0 0 2.241-2.035 4.84-2.6 1.299-0.282 2.638-0.218 3.94 0.6 0.917 0.576 1.797 1.776 2.62 3.34-2.074-1.112-4.233-1.469-6.080-1.36-1.231 0.072-2.329 0.346-3.2 0.74s-1.538 0.882-1.84 1.6c-0.036 0.078-0.058 0.169-0.058 0.266 0 0.354 0.287 0.64 0.64 0.64 0.086 0 0.167-0.017 0.242-0.047 0.64-0.245 2.081-0.36 3.636-0.098s3.233 0.869 4.52 1.86c1.287 0.991 2.195 2.327 2.32 4.22 0.102 1.534-0.377 3.493-1.66 5.88-0.391-2.942-1.6-5.216-3.3-6.86-2.088-2.019-4.786-3.173-7.36-3.9-0.055-0.017-0.119-0.027-0.184-0.027-0.034 0-0.067 0.003-0.099 0.008-1.588 0.222-3.931 0.959-6.056 2.8-1.758 1.522-3.296 3.866-4.12 7.18-1.706-4.444-1.235-7.375 0.3-9.14 1.76-2.023 4.956-2.724 7.68-2.4 0.024 0.003 0.052 0.005 0.080 0.005 0.354 0 0.64-0.287 0.64-0.64 0-0.173-0.069-0.33-0.18-0.445-2.383-2.447-6.655-2.34-9.68 0.040 0.499-2.017 1.672-3.727 3.26-4.5 0.511-0.249 1.077-0.408 1.68-0.46 0.226-0.020 0.462-0.033 0.7-0.020z"></path>
</svg>
