<?xml version="1.0" encoding="utf-8"?>
<!-- Generated by IcoMoon.io -->
<!DOCTYPE svg PUBLIC "-//W3C//DTD SVG 1.1//EN" "http://www.w3.org/Graphics/SVG/1.1/DTD/svg11.dtd">
<svg version="1.1" xmlns="http://www.w3.org/2000/svg" xmlns:xlink="http://www.w3.org/1999/xlink" width="32" height="32" viewBox="0 0 32 32">
<path fill="#444444" d="M13.38 0c-0.095 0.007-0.188 0.022-0.3 0.060-0.224 0.075-0.406 0.237-0.52 0.4s-0.185 0.328-0.26 0.52c-0.246 0.626-0.857 2.47-1.16 3.34-0.012 0.033-0.009 0.067-0.020 0.1 0.058-0.096 0.014-0.033-0.018 0.036l-2.442 5.924-0.040 0.060c0.010-0.031-0.021 0.040-0.039 0.116l-5.321 12.824c0.027-0.067-0.001-0.008-0.019 0.055l-3.201 7.685c-0.033 0.074-0.051 0.161-0.051 0.251 0 0.354 0.287 0.64 0.64 0.64 0.091 0 0.177-0.019 0.255-0.053l26.456-10.938c-0.062 0.018 0.003 0.003 0.064-0.022 0.625-0.2 2.835-0.964 3.416-1.158 0.373-0.125 0.76-0.314 1-0.72s0.219-0.932 0.020-1.4c-0.721-1.693-2.519-7.039-6.5-11.020-3.857-3.859-8.857-5.931-11.18-6.56-0.257-0.070-0.494-0.16-0.78-0.14zM13.58 1.28c-0.012 0.016-0.003 0.029 0.26 0.1 2.071 0.561 6.976 2.594 10.6 6.22 3.711 3.712 5.427 8.757 6.22 10.62 0.105 0.247 0.058 0.243 0.060 0.24s-0.070 0.083-0.3 0.16c-0.612 0.206-2.841 0.98-3.4 1.16 0.099-0.041 0.024-0.015-0.043 0.022 0.007-0.001 0.008-0.020-0.037-0.142-0.602-1.628-2.294-5.573-5.64-8.92-3.237-3.238-7.041-4.928-8.76-5.58-0.159-0.060-0.241-0.104-0.28-0.12 0.003-0.016 0.033-0.072 0.040-0.1 0.017-0.021 0.048-0.106 0.060-0.197 0.313-0.901 0.952-2.806 1.14-3.283 0.040-0.103 0.058-0.139 0.080-0.18zM11.76 6.24c0.111 0.045 0.222 0.083 0.32 0.12 1.618 0.613 5.282 2.242 8.32 5.28 3.141 3.141 4.776 6.954 5.34 8.48 0.017 0.046 0.040 0.095 0.060 0.14l-9.38 3.88c0.129-0.346 0.22-0.711 0.22-1.1 0-1.76-1.44-3.2-3.2-3.2s-3.2 1.44-3.2 3.2c0 1.278 0.77 2.368 1.86 2.88l-10.26 4.24 2-4.82c0.471 0.542 1.152 0.9 1.92 0.9 1.406 0 2.56-1.153 2.56-2.56s-1.154-2.56-2.56-2.56c-0.061 0-0.12 0.016-0.18 0.020l2.24-5.4c0.703 0.93 1.81 1.54 3.060 1.54 2.113 0 3.84-1.726 3.84-3.84s-1.727-3.84-3.84-3.84c-0.176 0-0.35 0.017-0.52 0.040l1.4-3.4zM10.88 10.88c1.422 0 2.56 1.137 2.56 2.56s-1.138 2.56-2.56 2.56c-1.151 0-2.114-0.746-2.44-1.78l1.28-3.060c0.348-0.177 0.742-0.28 1.16-0.28zM19.84 13.44c-1.406 0-2.56 1.153-2.56 2.56 0 0.207 0.013 0.407 0.060 0.6-0.806 0.583-1.34 1.535-1.34 2.6 0 1.76 1.44 3.2 3.2 3.2s3.2-1.44 3.2-3.2c0-0.621-0.19-1.188-0.5-1.68 0.314-0.429 0.5-0.953 0.5-1.52 0-1.407-1.154-2.56-2.56-2.56zM19.84 14.72c0.714 0 1.28 0.566 1.28 1.28 0 0.198-0.040 0.394-0.12 0.56-0.515-0.356-1.13-0.56-1.8-0.56-0.22 0-0.432 0.017-0.64 0.060-0.001-0.020 0-0.040 0-0.060 0-0.714 0.566-1.28 1.28-1.28zM19.2 17.28c0.518 0 0.976 0.211 1.32 0.54-0.015 0.002 0.070 0.106 0.178 0.179 0.265 0.33 0.422 0.744 0.422 1.201 0 1.068-0.852 1.92-1.92 1.92s-1.92-0.852-1.92-1.92c0-0.716 0.385-1.33 0.96-1.66 0.103-0.005 0.237-0.066 0.34-0.16 0.194-0.065 0.402-0.1 0.619-0.1zM13.44 21.12c1.068 0 1.92 0.852 1.92 1.92s-0.852 1.92-1.92 1.92c-1.068 0-1.92-0.852-1.92-1.92s0.852-1.92 1.92-1.92zM5.76 22.4c0.714 0 1.28 0.566 1.28 1.28s-0.566 1.28-1.28 1.28c-0.68 0-1.229-0.514-1.28-1.18l0.44-1.060c0.224-0.198 0.515-0.32 0.84-0.32z"></path>
</svg>
