<?xml version="1.0" encoding="utf-8"?>
<!-- Generated by IcoMoon.io -->
<!DOCTYPE svg PUBLIC "-//W3C//DTD SVG 1.1//EN" "http://www.w3.org/Graphics/SVG/1.1/DTD/svg11.dtd">
<svg version="1.1" xmlns="http://www.w3.org/2000/svg" xmlns:xlink="http://www.w3.org/1999/xlink" width="32" height="32" viewBox="0 0 32 32">
<path fill="#444444" d="M16 0c-0.671 0-1.9 0.118-2.98 1.020-0.526 0.44-3.677 3.213-6.76 5.94s-6.040 5.36-6.040 5.36c-0.134 0.117-0.219 0.288-0.22 0.48v18.56c0 0.353 0.287 0.64 0.64 0.64h30.72c0.353-0 0.64-0.287 0.64-0.64v-18.56c-0-0.19-0.085-0.362-0.219-0.479-0.001-0.001-2.93-2.604-6.001-5.321s-6.236-5.507-6.8-5.98c-1.080-0.904-2.31-1.020-2.98-1.020zM16 1.28c0.527 0 1.408 0.091 2.16 0.72 0.457 0.383 3.69 3.244 6.76 5.96 2.957 2.615 5.594 4.937 5.8 5.12v0.040l-3.84 3.040v-4.64c-0-0.353-0.287-0.64-0.64-0.64h-20.48c-0.009-0-0.019-0.001-0.030-0.001s-0.021 0-0.031 0.001c-0.325 0.032-0.579 0.305-0.579 0.637 0 0.001 0 0.002 0 0.003v4.64l-3.84-3.040v-0.040c0.206-0.183 2.871-2.534 5.84-5.16 3.082-2.726 6.318-5.584 6.72-5.92 0.753-0.629 1.634-0.72 2.16-0.72zM6.4 12.16h19.2v5l-4.060 3.22c-0.809-0.633-2.060-1.617-2.32-1.82h3.18c0.003 0 0.006 0 0.009 0 0.354 0 0.64-0.287 0.64-0.64s-0.287-0.64-0.64-0.64c-0.003 0-0.006 0-0.010 0h-12.8c-0.009-0-0.019-0.001-0.030-0.001s-0.021 0-0.031 0.001c-0.339 0.016-0.609 0.297-0.609 0.64 0 0.354 0.287 0.641 0.641 0.641 0.011 0 0.021-0 0.031-0.001l3.179 0c-0.26 0.203-1.511 1.187-2.32 1.82l-4.060-3.22v-5zM9.48 14.080c-0.328 0.032-0.583 0.306-0.583 0.64 0 0.355 0.288 0.643 0.643 0.643 0.021 0 0.042-0.001 0.063-0.003l12.797 0c0.003 0 0.006 0 0.009 0 0.354 0 0.64-0.287 0.64-0.64s-0.287-0.64-0.64-0.64c-0.003 0-0.006 0-0.010 0h-12.8c-0.009-0-0.019-0.001-0.030-0.001s-0.021 0-0.031 0.001c-0.008-0.001-0.018-0.001-0.029-0.001s-0.021 0-0.031 0.001zM1.28 14.74l8.14 6.44c-3.383 2.645-7.083 5.534-8.14 6.36v-12.8zM30.72 14.74v12.8c-1.057-0.826-4.757-3.715-8.14-6.36l8.14-6.44zM16 18.56c0.473 0 1.334 0.134 2.16 0.78 0.944 0.737 12.237 9.567 12.56 9.82v1.56h-29.44v-1.56c0.323-0.253 11.615-9.082 12.56-9.82 0.826-0.646 1.687-0.78 2.16-0.78z"></path>
</svg>
