<?xml version="1.0" encoding="utf-8"?>
<!-- Generated by IcoMoon.io -->
<!DOCTYPE svg PUBLIC "-//W3C//DTD SVG 1.1//EN" "http://www.w3.org/Graphics/SVG/1.1/DTD/svg11.dtd">
<svg version="1.1" xmlns="http://www.w3.org/2000/svg" xmlns:xlink="http://www.w3.org/1999/xlink" width="32" height="32" viewBox="0 0 32 32">
<path fill="#444444" d="M11.42 0c-1.49-0-2.479 0.161-3.12 0.34-0.32 0.089-0.559 0.183-0.72 0.26s-0.28 0.16-0.28 0.16l-0.22 0.18-0.040 0.26c0 0-0.64 5.118-0.64 8.4 0.001 1.975 0.974 3.147 1.84 3.86 0.433 0.357 0.836 0.623 1.080 0.84s0.28 0.312 0.28 0.42c-0 0.603-0.159 2.382-0.32 4.36s-0.322 4.196-0.32 5.88c0 3.044 0.209 4.68 0.64 5.7 0.216 0.51 0.512 0.889 0.88 1.1s0.755 0.24 1.040 0.24c0.287 0.001 0.671-0.029 1.040-0.24s0.664-0.589 0.88-1.1c0.431-1.021 0.641-2.656 0.64-5.7 0-1.683-0.16-3.902-0.32-5.88s-0.319-3.755-0.32-4.36c-0-0.108 0.037-0.187 0.28-0.4s0.646-0.486 1.080-0.84c0.869-0.708 1.84-1.883 1.84-3.88 0-2.232-0.64-8.38-0.64-8.38l-0.040-0.32-0.26-0.16c0 0-0.398-0.225-1.080-0.4s-1.71-0.34-3.2-0.34zM19.72 0c-0.298 0.058-0.52 0.318-0.52 0.629 0 0.004 0 0.008 0 0.012v7.039c0.001 0.449 0.059 5.762 0.060 7.14 0.001 0.591-0.164 3.017-0.34 5.54s-0.36 5.181-0.36 6.52c0 1.937 0.051 3.068 0.3 3.86 0.124 0.396 0.328 0.739 0.64 0.96s0.67 0.28 0.98 0.28c0.71-0 1.623-0.465 2.22-1.62s0.98-2.986 0.98-6.040c-0-1.717-0.332-3.056-0.66-4.1s-0.62-1.797-0.62-2.3c-0-0.894 0.719-2.182 1.54-3.68s1.699-3.247 1.7-5.24c-0.001-1.115-0.176-2.795-0.96-4.5s-2.19-3.416-4.58-4.44c-0.080-0.039-0.174-0.062-0.274-0.062-0.016 0-0.032 0.001-0.048 0.002-0.007-0.001-0.017-0.001-0.028-0.001s-0.021 0-0.031 0.001zM11.42 1.28c0.269 0 0.504 0.010 0.74 0.020v6.38c-0 0.003-0 0.006-0 0.009 0 0.353 0.287 0.64 0.64 0.64s0.64-0.287 0.64-0.64c0-0.003-0-0.006-0-0.010v-6.26c0.349 0.050 0.654 0.102 0.88 0.16 0.354 0.091 0.346 0.097 0.44 0.14 0.053 0.531 0.6 5.998 0.6 7.88 0 1.619-0.628 2.304-1.36 2.9-0.366 0.298-0.763 0.547-1.12 0.86s-0.721 0.766-0.72 1.36c0.001 0.798 0.161 2.49 0.32 4.46s0.32 4.18 0.32 5.78c0.001 2.977-0.255 4.526-0.54 5.2-0.142 0.337-0.256 0.452-0.34 0.5s-0.197 0.061-0.4 0.060c-0.203-0-0.316-0.012-0.4-0.060s-0.198-0.163-0.34-0.5c-0.285-0.674-0.54-2.223-0.54-5.2-0.002-1.6 0.16-3.81 0.32-5.78s0.32-3.662 0.32-4.46c0-0.594-0.364-1.043-0.72-1.36s-0.753-0.578-1.12-0.88c-0.733-0.604-1.359-1.288-1.36-2.88 0-2.933 0.535-7.366 0.6-7.9 0.094-0.039 0.179-0.070 0.36-0.12 0.232-0.065 0.558-0.125 0.96-0.18v6.28c-0 0.003-0 0.006-0 0.009 0 0.353 0.287 0.64 0.64 0.64s0.64-0.287 0.64-0.64c0-0.003-0-0.006-0-0.010v-6.38c0.176-0.006 0.344-0.020 0.54-0.020zM20.48 1.84c1.45 0.878 2.484 1.971 3.040 3.18 0.679 1.476 0.839 3.004 0.84 3.98-0.001 1.608-0.737 3.155-1.54 4.62s-1.701 2.822-1.7 4.3c-0 0.894 0.348 1.71 0.66 2.7s0.62 2.15 0.62 3.7c0 2.941-0.4 4.608-0.84 5.46s-0.814 0.92-1.080 0.92c-0.176-0-0.221-0.026-0.24-0.040s-0.086-0.063-0.16-0.3c-0.149-0.473-0.24-1.577-0.24-3.48 0-1.221 0.184-3.9 0.36-6.42s0.341-4.832 0.34-5.64c-0.001-1.414-0.059-6.807-0.060-7.14v-5.84z"></path>
</svg>
