<?xml version="1.0" encoding="utf-8"?>
<!-- Generated by IcoMoon.io -->
<!DOCTYPE svg PUBLIC "-//W3C//DTD SVG 1.1//EN" "http://www.w3.org/Graphics/SVG/1.1/DTD/svg11.dtd">
<svg version="1.1" xmlns="http://www.w3.org/2000/svg" xmlns:xlink="http://www.w3.org/1999/xlink" width="32" height="32" viewBox="0 0 32 32">
<path fill="#444444" d="M16 0.64c-3.541 0-6.4 2.859-6.4 6.4v1.28h-5.060l-0.060 0.56-2.56 22.4-0.080 0.72h28.32l-0.080-0.72-2.56-22.4-0.060-0.56h-5.060v-1.28c0-3.541-2.859-6.4-6.4-6.4zM16 1.92c2.859 0 5.12 2.261 5.12 5.12v1.28h-10.24v-1.28c0-2.859 2.261-5.12 5.12-5.12zM5.7 9.6h3.9v1.46c-0.382 0.221-0.64 0.627-0.64 1.1 0 0.707 0.573 1.28 1.28 1.28s1.28-0.573 1.28-1.28c0-0.473-0.258-0.879-0.64-1.1v-1.46h10.24v1.46c-0.382 0.221-0.64 0.627-0.64 1.1 0 0.707 0.573 1.28 1.28 1.28s1.28-0.573 1.28-1.28c0-0.473-0.258-0.879-0.64-1.1v-1.46h3.9l2.42 21.12h-25.44l2.42-21.12z"></path>
</svg>
