<?xml version="1.0" encoding="utf-8"?>
<!-- Generated by IcoMoon.io -->
<!DOCTYPE svg PUBLIC "-//W3C//DTD SVG 1.1//EN" "http://www.w3.org/Graphics/SVG/1.1/DTD/svg11.dtd">
<svg version="1.1" xmlns="http://www.w3.org/2000/svg" xmlns:xlink="http://www.w3.org/1999/xlink" width="32" height="32" viewBox="0 0 32 32">
<path fill="#444444" d="M7.795 0c-1.313 0-2.462 1.149-2.462 2.462v27.077c0 1.313 1.149 2.462 2.462 2.462h16.41c1.313 0 2.462-1.149 2.462-2.462v-27.077c0-1.313-1.149-2.462-2.462-2.462h-16.41zM7.795 1.641h16.41c0.492 0 0.82 0.328 0.82 0.821v27.077c0 0.492-0.328 0.82-0.82 0.82h-16.41c-0.492 0-0.821-0.328-0.821-0.82v-27.077c0-0.492 0.328-0.821 0.821-0.821zM9.272 3.282c-0.41 0.082-0.656 0.41-0.656 0.82v21.333c0 0.492 0.328 0.82 0.82 0.82h13.128c0.492 0 0.82-0.328 0.82-0.82v-21.333c0-0.492-0.328-0.821-0.82-0.821h-13.128c0 0-0.082 0-0.164 0 0.082 0 0 0 0 0zM10.256 4.923h11.487v19.692h-11.487v-19.692zM16 27.077c-0.656 0-1.231 0.574-1.231 1.231s0.574 1.231 1.231 1.231 1.231-0.574 1.231-1.231-0.574-1.231-1.231-1.231z"></path>
</svg>
