<?xml version="1.0" encoding="utf-8"?>
<!-- Generated by IcoMoon.io -->
<!DOCTYPE svg PUBLIC "-//W3C//DTD SVG 1.1//EN" "http://www.w3.org/Graphics/SVG/1.1/DTD/svg11.dtd">
<svg version="1.1" xmlns="http://www.w3.org/2000/svg" xmlns:xlink="http://www.w3.org/1999/xlink" width="32" height="32" viewBox="0 0 32 32">
<path fill="#444444" d="M15.88 6.18c0.061-0.018-0.004-0.003-0.064 0.022l-15.356 4.678c-0.263 0.084-0.449 0.326-0.449 0.611 0 0.263 0.159 0.489 0.385 0.587l6.004 2.362v5.080c0 0.706 0.361 1.34 0.9 1.84s1.278 0.901 2.14 1.24c1.725 0.678 4.018 1.080 6.56 1.080s4.835-0.402 6.56-1.080c0.862-0.339 1.601-0.74 2.14-1.24s0.9-1.134 0.9-1.84v-5.080l1.74-0.68c0.099 0.23 0.18 0.547 0.18 1.060v5.2c-0.382 0.222-0.64 0.627-0.64 1.1 0 0.707 1.28 3.84 1.28 3.84s1.28-3.133 1.28-3.84c0-0.473-0.258-0.878-0.64-1.1v-5.2c0-0.61-0.089-1.123-0.26-1.54l3.060-1.2c0.231-0.1 0.389-0.326 0.389-0.589 0-0.285-0.187-0.527-0.445-0.61l-15.365-4.681c-0.052-0.015-0.111-0.024-0.172-0.024-0.024 0-0.047 0.001-0.071 0.004-0.006-0.001-0.017-0.001-0.027-0.001s-0.021 0-0.031 0.001zM16 7.5l13.42 4.060-1.74 0.68c-0.483-0.317-0.997-0.414-1.38-0.46-0.857-0.104-10.18-1.32-10.18-1.32-0.030-0.005-0.065-0.008-0.1-0.008s-0.070 0.003-0.104 0.008c-0.341 0.011-0.617 0.293-0.617 0.639 0 0.354 0.287 0.64 0.64 0.64 0.007 0 0.014-0 0.021-0-0.001 0 8.234 1.068 9.759 1.26l-9.72 3.8-13.42-5.24 13.42-4.060zM7.68 14.94l8.080 3.16c0.071 0.030 0.153 0.047 0.24 0.047s0.169-0.017 0.244-0.048l8.076-3.158v4.58c0 0.266-0.132 0.558-0.5 0.9s-0.961 0.702-1.72 1c-1.518 0.597-3.694 0.98-6.1 0.98s-4.582-0.383-6.1-0.98c-0.759-0.298-1.352-0.658-1.72-1s-0.5-0.634-0.5-0.9v-4.58z"></path>
</svg>
