<?xml version="1.0" encoding="utf-8"?>
<!-- Generated by IcoMoon.io -->
<!DOCTYPE svg PUBLIC "-//W3C//DTD SVG 1.1//EN" "http://www.w3.org/Graphics/SVG/1.1/DTD/svg11.dtd">
<svg version="1.1" xmlns="http://www.w3.org/2000/svg" xmlns:xlink="http://www.w3.org/1999/xlink" width="32" height="32" viewBox="0 0 32 32">
<path fill="#444444" d="M16 3.2c-1.239 0-2.418 0.443-3.36 1.24-0.464 0.412-1.092 0.68-1.76 0.68-2.121 0-3.938 1.316-4.74 3.14-0.177 0.399-0.554 0.703-0.9 0.78-0.003-0-0.006-0-0.010-0s-0.007 0-0.011 0c-2.445 0.575-3.939 2.669-3.939 5.040 0 0.24 0.003 0.568 0.080 0.92 0.005 0.023-0.006 0.037 0 0.060 0.092 0.68-0.016 1.305-0.38 1.76 0.113-0.093 0.040-0.043-0.020 0.020-0.802 1.093-1.168 2.51-0.88 4.020-0 0.003-0 0.006-0 0.010s0 0.007 0 0.011c0.2 0.864 0.62 1.688 1.2 2.339v2.38c0 1.414 1.146 2.56 2.56 2.56h24.32c1.414 0 2.56-1.146 2.56-2.56v-2.38c0.765-0.908 1.28-2.080 1.28-3.38 0-1.157-0.369-2.212-1.020-3.080-0.003-0-0.006-0-0.010-0s-0.007 0-0.011 0c-0.375-0.469-0.476-1.080-0.319-1.76h-0.020c0.105-0.362 0.1-0.679 0.1-0.92 0-2.362-1.499-4.372-3.8-4.96-0.009-0.003-0.011-0.017-0.020-0.020-0.505-0.145-0.855-0.432-1.1-0.9-0.006-0.014-0.014-0.026-0.020-0.040-0.808-1.794-2.57-3.040-4.66-3.040-0.668 0-1.296-0.268-1.76-0.68-0.942-0.797-2.121-1.24-3.36-1.24zM16 4.48c0.928 0 1.802 0.321 2.52 0.92 0.007 0.006 0.013 0.014 0.020 0.020 0.686 0.601 1.594 0.98 2.58 0.98 1.606 0 2.911 0.916 3.52 2.3-0 0.006-0 0.013-0 0.020s0 0.014 0 0.021c0.389 0.776 1.068 1.361 1.94 1.599 0.003 0 0.006 0 0.010 0s0.007-0 0.011-0c1.78 0.445 2.839 1.887 2.839 3.74 0 0.256-0.043 0.57-0.040 0.56-0 0.009-0.001 0.019-0.001 0.030s0 0.021 0.001 0.031c-0.113 0.487-0.128 0.992-0.040 1.479-2.336-5.031-7.432-8.5-13.36-8.5-5.96 0-11.081 3.505-13.4 8.58 0.099-0.475 0.093-0.964 0.020-1.44 0.018 0.061 0.003-0.004-0.022-0.064-0.032-0.13-0.038-0.42-0.038-0.676 0-1.853 1.054-3.351 2.96-3.8 0.806-0.179 1.445-0.747 1.78-1.5 0-0.003 0-0.006 0-0.010s-0-0.007-0-0.011c0.606-1.376 1.989-2.359 3.58-2.359 0.986 0 1.894-0.379 2.58-0.98 0.007-0.006 0.013-0.014 0.020-0.020 0.718-0.599 1.592-0.92 2.52-0.92zM16 8.96c7.465 0 13.44 5.975 13.44 13.44v0.42c-0 0.009-0.001 0.019-0.001 0.030s0 0.021 0.001 0.031c-0.005 0.029-0.008 0.063-0.008 0.099s0.003 0.070 0.008 0.104l-0 2.516c0 0.762-0.518 1.28-1.28 1.28h-24.32c-0.762 0-1.28-0.518-1.28-1.28v-2.52c0.005-0.030 0.008-0.065 0.008-0.1s-0.003-0.070-0.008-0.104l0.001-0.476c0-7.465 5.975-13.44 13.44-13.44zM2.2 17.28c-0.406 1.097-0.685 2.256-0.82 3.46-0.011-0.041-0.030-0.079-0.040-0.12-0.223-1.171 0.041-2.176 0.64-3 0.004-0.005-0.004-0.015 0-0.020 0.080-0.101 0.155-0.213 0.22-0.32zM9.6 17.28c-0.707 0-1.28 0.573-1.28 1.28s0.573 1.28 1.28 1.28c0.707 0 1.28-0.573 1.28-1.28s-0.573-1.28-1.28-1.28zM29.82 17.34c0.044 0.066 0.090 0.136 0.14 0.2 0.004 0.005-0.004 0.015 0 0.020 0.494 0.664 0.76 1.396 0.76 2.28 0 0.288-0.036 0.57-0.1 0.84-0.135-1.161-0.413-2.279-0.8-3.34zM6.46 20.040c-0.707 0-1.28 0.573-1.28 1.28s0.573 1.28 1.28 1.28c0.707 0 1.28-0.573 1.28-1.28s-0.573-1.28-1.28-1.28zM10.24 21.76c-0.707 0-1.28 0.573-1.28 1.28s0.573 1.28 1.28 1.28c0.707 0 1.28-0.573 1.28-1.28s-0.573-1.28-1.28-1.28z"></path>
</svg>
