<?xml version="1.0" encoding="utf-8"?>
<!-- Generated by IcoMoon.io -->
<!DOCTYPE svg PUBLIC "-//W3C//DTD SVG 1.1//EN" "http://www.w3.org/Graphics/SVG/1.1/DTD/svg11.dtd">
<svg version="1.1" xmlns="http://www.w3.org/2000/svg" xmlns:xlink="http://www.w3.org/1999/xlink" width="32" height="32" viewBox="0 0 32 32">
<path fill="#444444" d="M16 0c-0.247 0-0.44 0.193-0.44 0.44 0 0.186 0.099 0.352 0.26 0.42-0.196 0.072-0.34 0.259-0.34 0.48-0.956 0.162-1.66 0.771-1.66 1.86h0.26v1.58c-2.748 0.845-4.796 3.401-5.080 6.1h-0.040c-0.009-0-0.019-0.001-0.030-0.001s-0.021 0-0.031 0.001c-0.339 0.016-0.609 0.297-0.609 0.64 0 0.354 0.287 0.641 0.641 0.641 0.011 0 0.021-0 0.031-0.001l-0.001 1.28c-0 0.009-0.001 0.019-0.001 0.030s0 0.021 0.001 0.031l-0 5.059h1.28v-4.48h1.28v4.48h1.28v-4.48h1.28v4.48h1.28v-4.48h1.28v4.48h1.28v-4.48h1.28v4.48h1.28v-4.48h1.28v4.48h1.28v-5c0.002-0.018 0.003-0.039 0.003-0.060s-0.001-0.042-0.003-0.063l0-1.277c0.353 0 0.64-0.287 0.64-0.64s-0.287-0.64-0.64-0.64h-0.040c-0.284-2.699-2.332-5.255-5.080-6.1v-1.58h0.26c0-1.089-0.704-1.698-1.66-1.86 0-0.221-0.144-0.408-0.34-0.48 0.161-0.068 0.26-0.234 0.26-0.42 0-0.247-0.193-0.44-0.44-0.44zM15.36 3.2h1.28v1.32c-0.212-0.021-0.422-0.040-0.64-0.040s-0.428 0.019-0.64 0.040v-1.32zM16 5.76c2.882 0 5.255 2.568 5.62 5.12h-11.24c0.365-2.552 2.738-5.12 5.62-5.12zM10.24 12.16h11.52v0.64h-11.52v-0.64zM7.62 19.18c0.061-0.018-0.004-0.003-0.064 0.021l-0.516-0.002c-0.009-0-0.019-0.001-0.030-0.001s-0.021 0-0.031 0.001c-0.339 0.016-0.609 0.297-0.609 0.64 0 0.354 0.287 0.641 0.641 0.641 0.011 0 0.021-0 0.031-0.001l-0.001 1.28c0 0.001 0 0.001 0 0.002 0 0.352 0.286 0.638 0.638 0.638 0.001 0 0.002 0 0.002 0l-0 7.68h1.28v-7.68h1.28v7.68h1.28v-7.68h1.28v7.68h1.28v-7.68h1.28v7.68h1.28v-7.68h1.28v7.68h1.28v-7.68h1.28v7.68h1.28v-7.68h1.28v7.68h1.28v-7.68c0.001 0 0.001 0 0.002 0 0.352 0 0.638-0.286 0.638-0.638 0-0.001 0-0.002 0-0.002v-1.28c0.353 0 0.64-0.287 0.64-0.64s-0.287-0.64-0.64-0.64h-17.16c-0.048-0.013-0.103-0.020-0.16-0.020-0.007 0-0.014 0-0.021 0zM8.32 20.48h15.36v0.64h-15.36v-0.64zM6.28 30.72c-0.328 0.032-0.583 0.306-0.583 0.64 0 0.355 0.288 0.643 0.643 0.643 0.021 0 0.042-0.001 0.063-0.003l19.197 0c0.003 0 0.006 0 0.009 0 0.354 0 0.64-0.287 0.64-0.64s-0.287-0.64-0.64-0.64c-0.003 0-0.006 0-0.010 0h-19.2c-0.009-0-0.019-0.001-0.030-0.001s-0.021 0-0.031 0.001c-0.008-0-0.018-0.001-0.029-0.001s-0.021 0-0.031 0.001z"></path>
</svg>
