<?xml version="1.0" encoding="utf-8"?>
<!-- Generated by IcoMoon.io -->
<!DOCTYPE svg PUBLIC "-//W3C//DTD SVG 1.1//EN" "http://www.w3.org/Graphics/SVG/1.1/DTD/svg11.dtd">
<svg version="1.1" xmlns="http://www.w3.org/2000/svg" xmlns:xlink="http://www.w3.org/1999/xlink" width="32" height="32" viewBox="0 0 32 32">
<path fill="#444444" d="M3.2 5.76c-1.76 0-3.2 1.44-3.2 3.2v14.080c0 1.76 1.44 3.2 3.2 3.2h17.28c1.76 0 3.2-1.44 3.2-3.2v-3.42l7.38 3.98 0.94 0.52v-16.24l-0.94 0.52-7.38 3.98v-3.42c0-1.76-1.44-3.2-3.2-3.2h-17.28zM3.2 7.040h17.28c1.068 0 1.92 0.852 1.92 1.92v14.080c0 1.068-0.852 1.92-1.92 1.92h-17.28c-1.068 0-1.92-0.852-1.92-1.92v-14.080c0-1.068 0.852-1.92 1.92-1.92zM30.72 10.020v11.96l-7.040-3.8v-4.36l7.040-3.8z"></path>
</svg>
