<?xml version="1.0" encoding="utf-8"?>
<!-- Generated by IcoMoon.io -->
<!DOCTYPE svg PUBLIC "-//W3C//DTD SVG 1.1//EN" "http://www.w3.org/Graphics/SVG/1.1/DTD/svg11.dtd">
<svg version="1.1" xmlns="http://www.w3.org/2000/svg" xmlns:xlink="http://www.w3.org/1999/xlink" width="32" height="32" viewBox="0 0 32 32">
<path fill="#444444" d="M16 1.28c-2.131 0-4.151 0.463-5.98 1.28-0.103 0.005-0.237 0.066-0.341 0.16-1.36 0.648-2.608 1.485-3.7 2.5-0.068 0.020-0.189 0.133-0.258 0.276-2.731 2.677-4.442 6.387-4.442 10.504 0 4.91 2.418 9.265 6.12 11.94 0.022 0.044 0.139 0.134 0.275 0.179 1.229 0.845 2.571 1.518 4.025 1.961 0.003 0.008 0.086 0.043 0.176 0.059 0.022 0.006 0.045-0.005 0.064 0.001-0.067-0.027-0.008 0.001 0.055 0.019 1.276 0.36 2.619 0.561 4.005 0.561 1.628 0 3.196-0.271 4.66-0.76-0.061 0.018 0.004 0.003 0.064-0.022 5.358-1.815 9.332-6.639 9.916-12.458 0.016-0.053 0.025-0.115 0.025-0.178 0-0.029-0.002-0.057-0.006-0.085 0.034-0.4 0.060-0.805 0.060-1.217 0-1.142-0.133-2.252-0.38-3.32 0.008 0.030-0.003-0.029-0.021-0.085-0.002-0.008 0.004-0.023 0.001-0.035 0.010 0.021-0.010-0.055-0.042-0.124-0.731-2.94-2.351-5.531-4.558-7.476 0.038 0.030-0.041-0.057-0.137-0.118-2.579-2.217-5.923-3.562-9.583-3.562zM16 2.56c2.203 0 4.267 0.543 6.1 1.48-0.734-0.106-1.451-0.191-2.14-0.22-4.209-0.177-7.49 0.936-8.94 1.54-0.132-0.715-0.209-1.295-0.24-1.76 1.602-0.673 3.371-1.040 5.22-1.040zM9.54 4.22c0.264 2.518 1.382 7.347 5.74 11.94-0.445 1.504-1.017 2.837-1.64 4-0.733-0.601-2.050-1.822-3.32-3.66-1.657-2.398-3.222-5.849-3.36-10.42 0.782-0.713 1.646-1.346 2.58-1.86zM18.74 5.080c1.877-0.035 3.985 0.188 6.2 0.88 1.654 1.473 2.934 3.354 3.7 5.48-3.862-1.819-7.485-2.173-10.32-1.98-2.685 0.183-4.569 0.813-5.46 1.18-0.759-1.448-1.249-2.815-1.56-4 1.055-0.46 3.795-1.492 7.44-1.56zM5.74 7.32c0.362 4.257 1.901 7.557 3.52 9.9 1.472 2.131 2.948 3.445 3.74 4.060-0.893 1.434-1.867 2.575-2.76 3.46-1.403-1.033-5.907-4.796-7.4-11.46 0.459-2.246 1.474-4.275 2.9-5.96zM19.56 10.7c2.724-0.022 6.040 0.543 9.56 2.44 0.199 0.92 0.32 1.88 0.32 2.86 0 0.106 0.002 0.215 0 0.32-1.676-0.752-4.639-1.748-8.52-1.66-1.448 0.033-3.022 0.237-4.7 0.64-1.121-1.181-2.011-2.377-2.72-3.54 0.848-0.322 2.598-0.863 4.9-1.020 0.371-0.025 0.762-0.037 1.16-0.040zM20.78 15.96c-0.15 0.936-0.543 2.701-1.5 4.72-1.25 2.638-3.46 5.734-7.36 8.14-1.024-0.325-1.979-0.793-2.88-1.34 1.387-1.009 3.481-2.898 5.26-5.88 0.066-0.040 0.159-0.167 0.199-0.316 0.777-1.36 1.484-2.929 2.021-4.745 1.52-0.364 2.945-0.539 4.26-0.58zM22.060 15.96c1.7 0.056 3.181 0.325 4.4 0.66-0.198 1.745-1.234 7.539-6.28 12.16-1.316 0.429-2.72 0.66-4.18 0.66-0.813 0-1.607-0.082-2.38-0.22 3.503-2.443 5.601-5.429 6.82-8 1.11-2.343 1.486-4.271 1.62-5.26zM2.58 16.7c1.939 4.87 5.238 7.8 6.7 8.92-0.549 0.468-1.013 0.82-1.4 1.080-3.060-2.323-5.093-5.909-5.3-10zM27.7 17.020c0.679 0.242 1.223 0.455 1.64 0.66-0.5 4.020-2.781 7.473-6.020 9.58 3.235-4.098 4.137-8.401 4.38-10.24z"></path>
</svg>
