<?xml version="1.0" encoding="utf-8"?>
<!-- Generated by IcoMoon.io -->
<!DOCTYPE svg PUBLIC "-//W3C//DTD SVG 1.1//EN" "http://www.w3.org/Graphics/SVG/1.1/DTD/svg11.dtd">
<svg version="1.1" xmlns="http://www.w3.org/2000/svg" xmlns:xlink="http://www.w3.org/1999/xlink" width="32" height="32" viewBox="0 0 32 32">
<path fill="#444444" d="M9.16 1.92l-0.16 0.42c0 0-1.96 5.18-1.96 10.46 0 4.624 3.799 8 8.32 8.3v4.6c0 0.606-0.285 1.1-0.8 1.58s-1.243 0.9-2 1.22c-1.515 0.639-3.060 0.9-3.060 0.9-0.006-0-0.013-0-0.020-0s-0.014 0-0.021 0c-0.441 0.102-0.85 0.338-1.179 0.66s-0.6 0.762-0.6 1.3c0 0.353 0.287 0.64 0.64 0.64h15.36c0.353-0 0.64-0.287 0.64-0.64 0-0.532-0.271-0.978-0.6-1.3s-0.738-0.554-1.18-0.66c-0.006-0-0.013-0-0.020-0s-0.014 0-0.021 0c0.001-0-1.544-0.261-3.059-0.9-0.757-0.32-1.485-0.74-2-1.22s-0.8-0.974-0.8-1.58v-4.6c4.5-0.288 8.32-3.668 8.32-8.3 0-5.28-1.96-10.46-1.96-10.46l-0.16-0.42h-13.68zM10.080 3.2h11.84c0.132 0.367 0.753 2.122 1.22 4.48-0.009-0-0.019-0.001-0.030-0.001s-0.021 0-0.031 0.001l-14.219-0c0.467-2.357 1.088-4.113 1.22-4.48zM23.36 8.9c0.193 1.224 0.32 2.542 0.32 3.9 0 4.114-3.505 7.040-7.66 7.040-4.196 0-7.7-2.926-7.7-7.040 0-1.343 0.13-2.647 0.32-3.86 0.030 0.009 0.084 0.018 0.139 0.020l14.301 0c0.003 0 0.006 0 0.009 0 0.098 0 0.191-0.022 0.275-0.062zM16 27.5c0.175 0.25 0.339 0.514 0.56 0.72 0.685 0.638 1.557 1.105 2.4 1.46 1.664 0.702 3.259 0.953 3.3 0.96v0.020c0.034 0.008 0.064 0.047 0.1 0.060h-12.72c0.035-0.013 0.068-0.053 0.1-0.060 0 0-0-0.020 0-0.020 0.041-0.007 1.636-0.258 3.3-0.96 0.843-0.355 1.715-0.822 2.4-1.46 0.221-0.206 0.385-0.47 0.56-0.72z"></path>
</svg>
