<?xml version="1.0" encoding="utf-8"?>
<!-- Generator: Adobe Illustrator 19.2.1, SVG Export Plug-In . SVG Version: 6.00 Build 0)  -->
<!DOCTYPE svg PUBLIC "-//W3C//DTD SVG 1.1//EN" "http://www.w3.org/Graphics/SVG/1.1/DTD/svg11.dtd">
<svg version="1.1" id="Layer_1" xmlns="http://www.w3.org/2000/svg" xmlns:xlink="http://www.w3.org/1999/xlink" x="0px" y="0px"
	 viewBox="0 0 24.2 32.1" enable-background="new 0 0 24.2 32.1" xml:space="preserve">
<g>
	<path fill="none" stroke="#000000" stroke-miterlimit="10" d="M20.4,5.2h1.7c0.9,0,1.7,0.7,1.7,1.7v23.1c0,0.9-0.7,1.7-1.7,1.7H2.2
		c-0.9,0-1.7-0.7-1.7-1.7V6.9c0-0.9,0.7-1.7,1.7-1.7h1.7"/>
	<circle fill="none" stroke="#000000" stroke-miterlimit="10" cx="12.1" cy="18.4" r="5.7"/>
	<path fill="none" stroke="#000000" stroke-miterlimit="10" d="M15.4,3.9V3.8c0-1.8-1.5-3.3-3.3-3.3h0c-1.8,0-3.3,1.5-3.3,3.3v0.1
		H6.7c-2.1,0-3.9,1.7-3.9,3.9v0h18.5v0c0-2.1-1.7-3.9-3.9-3.9H15.4z"/>
	<circle fill="none" stroke="#000000" stroke-miterlimit="10" cx="12.1" cy="4.2" r="1.1"/>
	<polyline fill="none" stroke="#000000" stroke-miterlimit="10" points="8.8,17.6 11.8,20.6 19.4,13 	"/>
</g>
</svg>
