<svg id="Layer_1" data-name="Layer 1" xmlns="http://www.w3.org/2000/svg" xmlns:xlink="http://www.w3.org/1999/xlink" viewBox="0 0 2027.87 1557.62"><defs><style>.cls-1{fill:#fff;stroke:#000;}.cls-1,.cls-2{stroke-miterlimit:10;}.cls-2{fill:none;stroke:#29abe2;}.cls-3{mask:url(#mask);}</style><mask id="mask" x="336.98" y="753.37" width="692.43" height="739.6" maskUnits="userSpaceOnUse"><g transform="translate(-50.9 -24.57)"><polygon class="cls-1" points="434.65 1058.53 872.07 933.31 1079.61 1323.01 604.57 1516.95 388.43 1265.98 434.65 1058.53"/></g></mask></defs><title>illustrations</title><path class="cls-2" d="M284.89,1209.62c-10.75,3.08-13,12.16-5.65,18.76l192.12,172.33c7.36,6.6,22.18,9.48,32.93,6.4l112.66-32.58c10.75-3.08,14-12.5,6.68-19.1" transform="translate(-50.9 -24.57)"/><polygon class="cls-2" points="412.18 1361.59 553.84 1320.67 387.58 1171.53 245.91 1212.44 412.18 1361.59"/><path class="cls-2" d="M348.05,1211.7l27.2-7.8c1.09-.31,1.38-1.12.63-1.79h0a4,4,0,0,0-3.35-.65l-27.2,7.8c-1.09.31-1.38,1.12-.63,1.79h0A4,4,0,0,0,348.05,1211.7Z" transform="translate(-50.9 -24.57)"/><path class="cls-2" d="M383.88,1199.06a6.17,6.17,0,0,0,5.26,1c1.72-.49,2.16-1.75,1-2.81a6.17,6.17,0,0,0-5.26-1C383.14,1196.74,382.7,1198,383.88,1199.06Z" transform="translate(-50.9 -24.57)"/><path class="cls-2" d="M351.94,1201.41a3.89,3.89,0,0,0,3.31.64c1.08-.31,1.36-1.1.62-1.77a3.89,3.89,0,0,0-3.31-.64C351.47,1200,351.2,1200.75,351.94,1201.41Z" transform="translate(-50.9 -24.57)"/><path class="cls-2" d="M538.31,1379.91c5,4.52,15.08,6.47,22.44,4.36s9.24-7.48,4.2-12-15.08-6.47-22.44-4.36S533.27,1375.39,538.31,1379.91Z" transform="translate(-50.9 -24.57)"/><path class="cls-2" d="M540.42,1380.74c4.24,3.8,12.69,5.45,18.88,3.67s7.77-6.3,3.53-10.1-12.69-5.45-18.88-3.67S536.18,1376.94,540.42,1380.74Z" transform="translate(-50.9 -24.57)"/><path class="cls-2" d="M507.32,1411.14l111.82-32.34c12.73-3.65,16-13,7.3-20.86L434,1185.34c-8.72-7.82-26.26-11.23-39-7.58L283.21,1210.1c-12.73,3.65-16,13-7.3,20.86l192.42,172.6C477,1411.38,494.59,1414.79,507.32,1411.14Z" transform="translate(-50.9 -24.57)"/><path class="cls-2" d="M280.74,1210.93c-17.1,4.9-16.39,25.75-6.27,34.82l192.42,172.6c8.72,7.82,27.7,9.43,40.43,5.78l111.82-32.34c17.1-4.9,19.1-23.07,9-32.14" transform="translate(-50.9 -24.57)"/><path class="cls-2" d="M672,1277.53c-10.75,3.08-13,12.16-5.65,18.76l290,260.12c7.36,6.6,22.18,9.48,32.93,6.4l240.36-69.55c10.75-3.08,14-12.5,6.68-19.1" transform="translate(-50.9 -24.57)"/><polygon class="cls-2" points="897.15 1517.29 1166.52 1439.4 902.4 1202.47 633.03 1280.35 897.15 1517.29"/><path class="cls-2" d="M808.14,1258.94l27.2-7.8c1.09-.31,1.38-1.12.63-1.79h0a4,4,0,0,0-3.35-.65l-27.2,7.8c-1.09.31-1.38,1.12-.63,1.79h0A4,4,0,0,0,808.14,1258.94Z" transform="translate(-50.9 -24.57)"/><path class="cls-2" d="M844,1246.3a6.17,6.17,0,0,0,5.26,1c1.72-.49,2.16-1.75,1-2.81a6.17,6.17,0,0,0-5.26-1C843.23,1244,842.79,1245.24,844,1246.3Z" transform="translate(-50.9 -24.57)"/><path class="cls-2" d="M812,1248.65a3.89,3.89,0,0,0,3.31.64c1.08-.31,1.36-1.1.62-1.77a3.89,3.89,0,0,0-3.31-.64C811.56,1247.19,811.28,1248,812,1248.65Z" transform="translate(-50.9 -24.57)"/><path class="cls-2" d="M1097.27,1515c5,4.52,15.08,6.47,22.44,4.36s9.24-7.48,4.2-12-15.08-6.47-22.44-4.36S1092.23,1510.47,1097.27,1515Z" transform="translate(-50.9 -24.57)"/><path class="cls-2" d="M1099.38,1515.82c4.24,3.8,12.69,5.45,18.88,3.67s7.77-6.3,3.53-10.1-12.69-5.45-18.88-3.67S1095.14,1512,1099.38,1515.82Z" transform="translate(-50.9 -24.57)"/><path class="cls-2" d="M992.3,1566.84l239.52-69.31c12.73-3.65,16-13,7.3-20.86L948.84,1216.28c-8.72-7.82-26.26-11.23-39-7.58L670.33,1278c-12.73,3.65-16,13-7.3,20.86l290.27,260.39C962,1567.08,979.57,1570.49,992.3,1566.84Z" transform="translate(-50.9 -24.57)"/><path class="cls-2" d="M667.87,1278.84c-17.1,4.9-16.39,25.75-6.27,34.82L951.86,1574c8.72,7.82,27.7,9.43,40.43,5.78l239.52-69.31c17.1-4.9,19.1-23.07,9-32.14" transform="translate(-50.9 -24.57)"/><polygon class="cls-2" points="1122.44 785.24 67.42 1087.51 67.42 369.73 1122.44 67.46 1122.44 785.24"/><polygon class="cls-2" points="17.88 624.57 22.5 629.23 22.5 565.83 17.52 561.16 17.88 624.57"/><polygon class="cls-2" points="17.88 730.72 22.5 735.39 22.5 671.98 17.52 667.32 17.88 730.72"/><path class="cls-2" d="M1194.41,56.57l-34-26.59c-5.67-4.84-15.77-6.24-25-3.6L82.9,321.35c-17,4.87-31.49,22.75-31.49,39.75v727.18a23.86,23.86,0,0,0,7.36,17.28s37.43,39.75,37.64,39.93h0c6,4.75,14.33,6.43,23.48,3.81L1171.68,848.17c17-4.87,30.73-22.75,30.73-39.75V75.07C1202.4,67.56,1200.38,61.11,1194.41,56.57Z" transform="translate(-50.9 -24.57)"/><g class="cls-3"><path class="cls-2" d="M609.16,1225.38a17.88,17.88,0,0,1-16.57-3.61c-23.07-19.77-37.5-32.56-76.68-71.75-47.1-47.1,73.64-344.4,73.64-344.4l94.13-27.05S726.52,989,789.78,1052.29c53.1,53.1,73,67,96.51,85.92a4.66,4.66,0,0,1-1.64,8.11Z" transform="translate(-50.9 -24.57)"/><path class="cls-2" d="M888.17,1141.21l-0.15,9.72a7.64,7.64,0,0,1-5.53,7.22l-273.24,78.32a17.88,17.88,0,0,1-16.67-3.69c-24.17-21-44.41-39.67-83.88-79.14-47.1-47.1,67.89-337.52,67.89-337.52" transform="translate(-50.9 -24.57)"/></g><path class="cls-2" d="M120.29,1149.31c-17,4.87-30.9-5.06-30.9-22.06V393.9c0-17,13.91-34.88,30.9-39.75L1172.26,53c17-4.87,30.14,5.06,30.14,22.06" transform="translate(-50.9 -24.57)"/><path class="cls-2" d="M87.78,1136.28c-1.9-1.9-3.39-6.57-3.39-13V389.9c0-17,13.91-34.88,30.9-39.75L1167.26,49c7.06-2.31,15-2,16.86-.5" transform="translate(-50.9 -24.57)"/><path class="cls-2" d="M1607.78,1114.57a0.46,0.46,0,0,1,.42.1l147.86,132a10.49,10.49,0,0,1-4.11,17.89l-445.48,128a48.45,48.45,0,0,1-45.74-10.51l-425-381.38A11,11,0,0,1,840.06,982L1285,854.14a48,48,0,0,1,45.31,10.41l133.8,120.81a0.46,0.46,0,0,1-.15.77l-19.45,6.8a2,2,0,0,0-.67,3.32l136.26,124.58a2,2,0,0,0,1.83.46Z" transform="translate(-50.9 -24.57)"/><path class="cls-2" d="M1758.71,1250.32c14.47,32.53-19.28,42.74-42,49.27l-404.47,117.69a68.52,68.52,0,0,1-64.7-14.86l-403.94-367c-11.89-10.67-33.34-31.95-6.43-52.1" transform="translate(-50.9 -24.57)"/><path class="cls-2" d="M1760.21,1274c9.2,0.94,16.72,2.52,30.42-14.77l278-432.69a28.9,28.9,0,0,0-5-37.13L1627.09,397.65a28.9,28.9,0,0,0-44,6.46l-274,449.41" transform="translate(-50.9 -24.57)"/><path class="cls-2" d="M1491.46,1307.44l205.46-58.83a7,7,0,0,0,2.76-12L1325.76,901a51.76,51.76,0,0,0-48.82-11.24l-205.46,58.83a7,7,0,0,0-2.76,12l373.92,335.57A51.76,51.76,0,0,0,1491.46,1307.44Z" transform="translate(-50.9 -24.57)"/><path class="cls-2" d="M1174.71,1233.37L1279,1203.51a7.85,7.85,0,0,0,3.09-13.38l-109-98.14a34.42,34.42,0,0,0-32.51-7.51l-104.26,29.85a7.85,7.85,0,0,0-3.09,13.38l109,98.14A34.42,34.42,0,0,0,1174.71,1233.37Z" transform="translate(-50.9 -24.57)"/><polygon class="cls-2" points="1979.1 785.89 1726.97 1180.04 1314.53 814.79 1560.07 413.63 1979.1 785.89"/><path class="cls-2" d="M1613.49,1110.61L1474,983.1s-12.15,3.77-16.42,5.31-5.8,8-3,10.81c3.64,3.64,131.78,120.88,131.78,120.88l21.63-5.59,4.62,4.14Z" transform="translate(-50.9 -24.57)"/><path class="cls-2" d="M1758.89,1276.61c7.2,2.83,23,3.26,34.18-13L2072.88,829c7.6-11.83,7.62-30.49-2.84-39.88L1632.12,396.29c-22.49-17-40-7.47-49.35,7.83" transform="translate(-50.9 -24.57)"/><path class="cls-2" d="M1487.17,1299.9l194.5-55.77a6.8,6.8,0,0,0,2.67-11.6l-361.4-324.34a50,50,0,0,0-47.18-10.86l-194.5,55.77a6.8,6.8,0,0,0-2.67,11.6L1440,1289A50,50,0,0,0,1487.17,1299.9Z" transform="translate(-50.9 -24.57)"/><path class="cls-2" d="M118.33,1301.14" transform="translate(-50.9 -24.57)"/><path class="cls-2" d="M118.33,583.36" transform="translate(-50.9 -24.57)"/></svg>