<?xml version="1.0" encoding="utf-8"?>
<!-- Generator: Adobe Illustrator 19.2.1, SVG Export Plug-In . SVG Version: 6.00 Build 0)  -->
<!DOCTYPE svg PUBLIC "-//W3C//DTD SVG 1.1//EN" "http://www.w3.org/Graphics/SVG/1.1/DTD/svg11.dtd">
<svg version="1.1" id="Layer_1" xmlns="http://www.w3.org/2000/svg" xmlns:xlink="http://www.w3.org/1999/xlink" x="0px" y="0px"
	 viewBox="0 0 511 476" enable-background="new 0 0 511 476" xml:space="preserve">
<g>
	<g>
		<path fill="none" stroke="#FFFFFF" stroke-miterlimit="10" d="M403.5,105.9c0-16-11.5-28.4-27.5-28.4H143
			c-16,0-30.5,12.4-30.5,28.4v233c0,16,14.6,29.7,30.5,29.7H376c16,0,27.5-13.7,27.5-29.7V105.9z M343.5,241.5h-61v58h-42v-58h-61
			v-45h61v-58h42v58h61V241.5z"/>
	</g>
	<circle fill="none" stroke="#FFFFFF" stroke-miterlimit="10" cx="376.2" cy="104.8" r="27.3"/>
	<circle fill="none" stroke="#FFFFFF" stroke-miterlimit="10" cx="139.7" cy="104.8" r="27.3"/>
	<circle fill="none" stroke="#FFFFFF" stroke-miterlimit="10" cx="376.2" cy="341.2" r="27.3"/>
	<circle fill="none" stroke="#FFFFFF" stroke-miterlimit="10" cx="139.7" cy="341.2" r="27.3"/>
	<line fill="none" stroke="#FFFFFF" stroke-miterlimit="10" x1="239.9" y1="391.6" x2="239.9" y2="47"/>
	<line fill="none" stroke="#FFFFFF" stroke-miterlimit="10" x1="282.6" y1="391.6" x2="282.6" y2="47"/>
	<line fill="none" stroke="#FFFFFF" stroke-miterlimit="10" x1="473" y1="241.5" x2="38" y2="241.5"/>
	<line fill="none" stroke="#FFFFFF" stroke-miterlimit="10" x1="511" y1="299.5" x2="0" y2="299.5"/>
	<line fill="none" stroke="#FFFFFF" stroke-miterlimit="10" x1="73" y1="196.5" x2="436" y2="196.5"/>
	<line fill="none" stroke="#FFFFFF" stroke-miterlimit="10" x1="73" y1="138.5" x2="436" y2="138.5"/>
	<line fill="none" stroke="#FFFFFF" stroke-miterlimit="10" x1="403.5" y1="476" x2="403.5" y2="0"/>
	<line fill="none" stroke="#FFFFFF" stroke-miterlimit="10" x1="1" y1="368.5" x2="499" y2="368.5"/>
	<line fill="none" stroke="#FFFFFF" stroke-miterlimit="10" x1="112.5" y1="22" x2="112.5" y2="397"/>
	<line fill="none" stroke="#FFFFFF" stroke-miterlimit="10" x1="440" y1="77.5" x2="41" y2="77.5"/>
	<circle fill="none" stroke="#FFFFFF" stroke-miterlimit="10" cx="139.7" cy="104.8" r="78.4"/>
</g>
</svg>
