<?xml version="1.0" encoding="utf-8"?>
<!-- Generator: Adobe Illustrator 19.2.1, SVG Export Plug-In . SVG Version: 6.00 Build 0)  -->
<!DOCTYPE svg PUBLIC "-//W3C//DTD SVG 1.1//EN" "http://www.w3.org/Graphics/SVG/1.1/DTD/svg11.dtd">
<svg version="1.1" id="Layer_1" xmlns="http://www.w3.org/2000/svg" xmlns:xlink="http://www.w3.org/1999/xlink" x="0px" y="0px"
	 viewBox="0 0 511 476" enable-background="new 0 0 511 476" xml:space="preserve">
<g>
	<path fill="#FFFFFF" d="M400.9,105c0-13.7-11.1-24.9-24.9-24.9H140.4c-14.4,0-26.2,11.8-26.2,26.2v233.4
		c0,14.9,12.2,27.1,27.1,27.1h233.3c14.5,0,26.3-11.8,26.3-26.3V105z"/>
</g>
<g>
	<g>
		<path fill="#FF6550" d="M403,103.2c0-13.9-11.3-25.2-25.2-25.2H138.6C124,78,112,90,112,104.6v236.9c0,15.1,12.4,27.5,27.5,27.5
			h236.8c14.8,0,26.7-12,26.7-26.7V103.2z M343,242h-61v58h-42v-58h-61v-45h61v-58h42v58h61V242z"/>
	</g>
	<circle fill="none" stroke="#FFFFFF" stroke-miterlimit="10" cx="376.2" cy="104.8" r="27.3"/>
	<circle fill="none" stroke="#FFFFFF" stroke-miterlimit="10" cx="139.7" cy="104.8" r="27.3"/>
	<circle fill="none" stroke="#FFFFFF" stroke-miterlimit="10" cx="376.2" cy="341.2" r="27.3"/>
	<circle fill="none" stroke="#FFFFFF" stroke-miterlimit="10" cx="139.7" cy="341.2" r="27.3"/>
	<line fill="none" stroke="#FFFFFF" stroke-miterlimit="10" x1="239.9" y1="391.6" x2="239.9" y2="47"/>
	<line fill="none" stroke="#FFFFFF" stroke-miterlimit="10" x1="179" y1="391.6" x2="179" y2="47"/>
	<line fill="none" stroke="#FFFFFF" stroke-miterlimit="10" x1="343" y1="391.6" x2="343" y2="47"/>
	<line fill="none" stroke="#FFFFFF" stroke-miterlimit="10" x1="282.6" y1="391.6" x2="282.6" y2="47"/>
	<line fill="none" stroke="#FFFFFF" stroke-miterlimit="10" x1="473" y1="241.5" x2="38" y2="241.5"/>
	<line fill="none" stroke="#FFFFFF" stroke-miterlimit="10" x1="511" y1="299.5" x2="0" y2="299.5"/>
	<line fill="none" stroke="#FFFFFF" stroke-miterlimit="10" x1="73" y1="196.5" x2="436" y2="196.5"/>
	<line fill="none" stroke="#FFFFFF" stroke-miterlimit="10" x1="73" y1="138.5" x2="436" y2="138.5"/>
	<line fill="none" stroke="#FFFFFF" stroke-miterlimit="10" x1="403.5" y1="476" x2="403.5" y2="0"/>
	<line fill="none" stroke="#FFFFFF" stroke-miterlimit="10" x1="1" y1="368.5" x2="499" y2="368.5"/>
	<line fill="none" stroke="#FFFFFF" stroke-miterlimit="10" x1="112.5" y1="22" x2="112.5" y2="397"/>
	<line fill="none" stroke="#FFFFFF" stroke-miterlimit="10" x1="440" y1="77.5" x2="41" y2="77.5"/>
	<circle fill="none" stroke="#FFFFFF" stroke-miterlimit="10" cx="139.7" cy="104.8" r="78.4"/>
</g>
</svg>
