<?xml version="1.0" encoding="utf-8"?>
<!-- Generator: Adobe Illustrator 19.2.1, SVG Export Plug-In . SVG Version: 6.00 Build 0)  -->
<!DOCTYPE svg PUBLIC "-//W3C//DTD SVG 1.1//EN" "http://www.w3.org/Graphics/SVG/1.1/DTD/svg11.dtd">
<svg version="1.1" id="Layer_1" xmlns="http://www.w3.org/2000/svg" xmlns:xlink="http://www.w3.org/1999/xlink" x="0px" y="0px"
	 viewBox="0 0 287.2 86.5" enable-background="new 0 0 287.2 86.5" xml:space="preserve">
<g>
	<defs>
		<rect id="SVGID_2_" x="68.6" y="18.1" width="206.1" height="53.7"/>
	</defs>
	<clipPath id="SVGID_3_">
		<use xlink:href="#SVGID_2_"  overflow="visible"/>
	</clipPath>
	<g clip-path="url(#SVGID_3_)">
		<g>
			<path id="SVGID_1_" fill="#3E3F3F" d="M259.3,43.1c-0.5-0.7-1.2-1.3-2.1-1.8s-1.9-0.7-2.9-0.7c-0.9,0-1.8,0.2-2.5,0.6
				c-0.8,0.4-1.2,1-1.2,1.9s0.4,1.5,1.3,1.9c0.8,0.4,2.1,0.7,3.7,1.1c0.9,0.2,1.7,0.4,2.6,0.8s1.7,0.7,2.4,1.3s1.3,1.2,1.8,2
				s0.7,1.7,0.7,2.9c0,1.4-0.3,2.6-0.8,3.6s-1.2,1.8-2.1,2.4s-1.9,1-3.1,1.3c-1.2,0.3-2.4,0.4-3.6,0.4c-1.8,0-3.5-0.3-5.2-1
				s-3.1-1.6-4.2-2.8l3.8-3.6c0.6,0.8,1.5,1.5,2.5,2.1c1,0.5,2.2,0.8,3.4,0.8c0.4,0,0.8,0,1.3-0.1c0.4-0.1,0.8-0.2,1.2-0.5
				c0.4-0.3,0.7-0.5,0.9-0.8c0.2-0.4,0.3-0.8,0.3-1.3c0-1-0.4-1.6-1.3-2.1s-2.2-0.8-4-1.2c-0.9-0.2-1.7-0.4-2.5-0.7
				s-1.5-0.7-2.2-1.2c-0.6-0.5-1.2-1.1-1.5-1.8s-0.6-1.6-0.6-2.7c0-1.3,0.3-2.4,0.8-3.3c0.5-0.9,1.2-1.7,2.1-2.3s1.8-1,2.9-1.3
				c1.1-0.3,2.2-0.4,3.4-0.4c1.7,0,3.3,0.3,4.9,0.9s2.8,1.5,3.8,2.6L259.3,43.1z M232.5,29.1c0-0.9,0.3-1.7,1-2.4
				c0.7-0.7,1.6-1,2.6-1s1.9,0.3,2.7,1c0.7,0.7,1.1,1.5,1.1,2.5s-0.4,1.8-1.1,2.5c-0.7,0.7-1.6,1-2.7,1s-1.9-0.3-2.6-1
				C232.8,30.9,232.5,30.1,232.5,29.1z M233.3,37h5.8v23h-5.8V37z M222.5,37.1c1.1,0.5,2,1.2,2.6,2.1c0.7,0.9,1.2,1.9,1.5,3
				s0.5,2.3,0.5,3.5V60h-5.8V47.3c0-0.7,0-1.4-0.1-2.1c-0.1-0.7-0.3-1.4-0.6-2s-0.7-1.1-1.3-1.5s-1.3-0.6-2.2-0.6s-1.7,0.2-2.4,0.5
				c-0.7,0.4-1.2,0.8-1.7,1.4c-0.4,0.6-0.8,1.3-1,2s-0.3,1.5-0.3,2.3V60h-5.8V25.2h5.8v15h0.1c0.2-0.5,0.6-1,1-1.4
				c0.4-0.5,0.9-0.9,1.5-1.2s1.2-0.7,2-0.9c0.7-0.2,1.5-0.3,2.4-0.3C220.1,36.3,221.4,36.5,222.5,37.1z M185.9,31.3h-10.4V26h26.9
				v5.3H192V60h-6V31.3H185.9z M152.1,48.4c0,0.9,0.1,1.8,0.4,2.7c0.3,0.9,0.7,1.7,1.2,2.4s1.2,1.3,2.1,1.7c0.8,0.4,1.8,0.7,2.9,0.7
				c1.1,0,2-0.2,2.8-0.6c0.8-0.4,1.5-1,2.1-1.7s1-1.5,1.3-2.4s0.5-1.8,0.5-2.7s-0.2-1.8-0.5-2.7s-0.8-1.7-1.3-2.4
				c-0.6-0.7-1.3-1.3-2.1-1.7s-1.8-0.7-2.8-0.7c-1.1,0-2.1,0.2-2.9,0.6c-0.8,0.4-1.5,1-2.1,1.7c-0.5,0.7-1,1.5-1.2,2.4
				C152.3,46.6,152.1,47.5,152.1,48.4z M171.1,60h-5.5v-3.5h-0.1c-0.8,1.3-1.9,2.4-3.3,3.1c-1.4,0.7-3,1.1-4.6,1.1
				c-1.8,0-3.3-0.3-4.7-1s-2.6-1.5-3.6-2.6s-1.7-2.4-2.3-3.9s-0.8-3.1-0.8-4.8s0.3-3.3,0.8-4.8s1.3-2.8,2.3-3.8
				c1-1.1,2.2-1.9,3.6-2.6c1.4-0.6,2.9-0.9,4.5-0.9c1.1,0,2,0.1,2.8,0.4c0.8,0.2,1.6,0.5,2.2,0.9c0.6,0.4,1.2,0.7,1.6,1.2
				s0.8,0.8,1.1,1.2h0.1V25.2h5.8L171.1,60L171.1,60z M122.4,48.4c0,0.9,0.1,1.8,0.4,2.7s0.7,1.7,1.2,2.4s1.2,1.3,2.1,1.7
				c0.8,0.4,1.8,0.7,2.9,0.7c1.1,0,2-0.2,2.8-0.6c0.8-0.4,1.5-1,2.1-1.7s1-1.5,1.3-2.4s0.5-1.8,0.5-2.7s-0.2-1.8-0.5-2.7
				s-0.8-1.7-1.3-2.4c-0.6-0.7-1.3-1.3-2.1-1.7C131,41.2,130,41,129,41c-1.1,0-2.1,0.2-2.9,0.6c-0.8,0.4-1.5,1-2.1,1.7
				c-0.5,0.7-1,1.5-1.2,2.4C122.5,46.6,122.4,47.5,122.4,48.4z M141.3,60h-5.5v-3.5h-0.1c-0.8,1.3-1.9,2.4-3.3,3.1
				c-1.4,0.7-3,1.1-4.6,1.1c-1.8,0-3.3-0.3-4.7-1s-2.6-1.5-3.6-2.6s-1.7-2.4-2.3-3.9s-0.8-3.1-0.8-4.8s0.3-3.3,0.8-4.8
				s1.3-2.8,2.3-3.8c1-1.1,2.2-1.9,3.6-2.6c1.4-0.6,2.9-0.9,4.5-0.9c1.1,0,2,0.1,2.8,0.4c0.8,0.2,1.6,0.5,2.2,0.9
				c0.6,0.4,1.2,0.7,1.6,1.2c0.4,0.4,0.8,0.8,1.1,1.2h0.1V25.2h5.8L141.3,60L141.3,60z M102.6,47l-5.2-13.8L92.1,47H102.6z M94.9,26
				h5.2l14.6,34h-6.9l-3.2-7.8H90L86.9,60h-6.8L94.9,26z"/>
		</g>
		<g>
			<defs>
				<path id="SVGID_4_" d="M259.3,43.1c-0.5-0.7-1.2-1.3-2.1-1.8s-1.9-0.7-2.9-0.7c-0.9,0-1.8,0.2-2.5,0.6c-0.8,0.4-1.2,1-1.2,1.9
					s0.4,1.5,1.3,1.9c0.8,0.4,2.1,0.7,3.7,1.1c0.9,0.2,1.7,0.4,2.6,0.8s1.7,0.7,2.4,1.3s1.3,1.2,1.8,2s0.7,1.7,0.7,2.9
					c0,1.4-0.3,2.6-0.8,3.6s-1.2,1.8-2.1,2.4s-1.9,1-3.1,1.3c-1.2,0.3-2.4,0.4-3.6,0.4c-1.8,0-3.5-0.3-5.2-1s-3.1-1.6-4.2-2.8
					l3.8-3.6c0.6,0.8,1.5,1.5,2.5,2.1c1,0.5,2.2,0.8,3.4,0.8c0.4,0,0.8,0,1.3-0.1c0.4-0.1,0.8-0.2,1.2-0.5c0.4-0.3,0.7-0.5,0.9-0.8
					c0.2-0.4,0.3-0.8,0.3-1.3c0-1-0.4-1.6-1.3-2.1s-2.2-0.8-4-1.2c-0.9-0.2-1.7-0.4-2.5-0.7s-1.5-0.7-2.2-1.2
					c-0.6-0.5-1.2-1.1-1.5-1.8s-0.6-1.6-0.6-2.7c0-1.3,0.3-2.4,0.8-3.3c0.5-0.9,1.2-1.7,2.1-2.3s1.8-1,2.9-1.3
					c1.1-0.3,2.2-0.4,3.4-0.4c1.7,0,3.3,0.3,4.9,0.9s2.8,1.5,3.8,2.6L259.3,43.1z M232.5,29.1c0-0.9,0.3-1.7,1-2.4
					c0.7-0.7,1.6-1,2.6-1s1.9,0.3,2.7,1c0.7,0.7,1.1,1.5,1.1,2.5s-0.4,1.8-1.1,2.5c-0.7,0.7-1.6,1-2.7,1s-1.9-0.3-2.6-1
					C232.8,30.9,232.5,30.1,232.5,29.1z M233.3,37h5.8v23h-5.8V37z M222.5,37.1c1.1,0.5,2,1.2,2.6,2.1c0.7,0.9,1.2,1.9,1.5,3
					s0.5,2.3,0.5,3.5V60h-5.8V47.3c0-0.7,0-1.4-0.1-2.1c-0.1-0.7-0.3-1.4-0.6-2s-0.7-1.1-1.3-1.5s-1.3-0.6-2.2-0.6s-1.7,0.2-2.4,0.5
					c-0.7,0.4-1.2,0.8-1.7,1.4c-0.4,0.6-0.8,1.3-1,2s-0.3,1.5-0.3,2.3V60h-5.8V25.2h5.8v15h0.1c0.2-0.5,0.6-1,1-1.4
					c0.4-0.5,0.9-0.9,1.5-1.2s1.2-0.7,2-0.9c0.7-0.2,1.5-0.3,2.4-0.3C220.1,36.3,221.4,36.5,222.5,37.1z M185.9,31.3h-10.4V26h26.9
					v5.3H192V60h-6V31.3H185.9z M152.1,48.4c0,0.9,0.1,1.8,0.4,2.7c0.3,0.9,0.7,1.7,1.2,2.4s1.2,1.3,2.1,1.7
					c0.8,0.4,1.8,0.7,2.9,0.7c1.1,0,2-0.2,2.8-0.6c0.8-0.4,1.5-1,2.1-1.7s1-1.5,1.3-2.4s0.5-1.8,0.5-2.7s-0.2-1.8-0.5-2.7
					s-0.8-1.7-1.3-2.4c-0.6-0.7-1.3-1.3-2.1-1.7s-1.8-0.7-2.8-0.7c-1.1,0-2.1,0.2-2.9,0.6c-0.8,0.4-1.5,1-2.1,1.7
					c-0.5,0.7-1,1.5-1.2,2.4C152.3,46.6,152.1,47.5,152.1,48.4z M171.1,60h-5.5v-3.5h-0.1c-0.8,1.3-1.9,2.4-3.3,3.1
					c-1.4,0.7-3,1.1-4.6,1.1c-1.8,0-3.3-0.3-4.7-1s-2.6-1.5-3.6-2.6s-1.7-2.4-2.3-3.9s-0.8-3.1-0.8-4.8s0.3-3.3,0.8-4.8
					s1.3-2.8,2.3-3.8c1-1.1,2.2-1.9,3.6-2.6c1.4-0.6,2.9-0.9,4.5-0.9c1.1,0,2,0.1,2.8,0.4c0.8,0.2,1.6,0.5,2.2,0.9
					c0.6,0.4,1.2,0.7,1.6,1.2s0.8,0.8,1.1,1.2h0.1V25.2h5.8L171.1,60L171.1,60z M122.4,48.4c0,0.9,0.1,1.8,0.4,2.7s0.7,1.7,1.2,2.4
					s1.2,1.3,2.1,1.7c0.8,0.4,1.8,0.7,2.9,0.7c1.1,0,2-0.2,2.8-0.6c0.8-0.4,1.5-1,2.1-1.7s1-1.5,1.3-2.4s0.5-1.8,0.5-2.7
					s-0.2-1.8-0.5-2.7s-0.8-1.7-1.3-2.4c-0.6-0.7-1.3-1.3-2.1-1.7C131,41.2,130,41,129,41c-1.1,0-2.1,0.2-2.9,0.6
					c-0.8,0.4-1.5,1-2.1,1.7c-0.5,0.7-1,1.5-1.2,2.4C122.5,46.6,122.4,47.5,122.4,48.4z M141.3,60h-5.5v-3.5h-0.1
					c-0.8,1.3-1.9,2.4-3.3,3.1c-1.4,0.7-3,1.1-4.6,1.1c-1.8,0-3.3-0.3-4.7-1s-2.6-1.5-3.6-2.6s-1.7-2.4-2.3-3.9s-0.8-3.1-0.8-4.8
					s0.3-3.3,0.8-4.8s1.3-2.8,2.3-3.8c1-1.1,2.2-1.9,3.6-2.6c1.4-0.6,2.9-0.9,4.5-0.9c1.1,0,2,0.1,2.8,0.4c0.8,0.2,1.6,0.5,2.2,0.9
					c0.6,0.4,1.2,0.7,1.6,1.2c0.4,0.4,0.8,0.8,1.1,1.2h0.1V25.2h5.8L141.3,60L141.3,60z M102.6,47l-5.2-13.8L92.1,47H102.6z
					 M94.9,26h5.2l14.6,34h-6.9l-3.2-7.8H90L86.9,60h-6.8L94.9,26z"/>
			</defs>
			<clipPath id="SVGID_6_">
				<use xlink:href="#SVGID_4_"  overflow="visible"/>
			</clipPath>
		</g>
	</g>
</g>
<g>
	<g>
		<g>
			<path id="SVGID_5_" fill="#FF6550" d="M20.5,24c0-3.3,2.7-6,6-6h36c3.3,0,6,2.7,6,6v36c0,3.3-2.7,6-6,6h-36c-3.3,0-6-2.7-6-6V24z
				"/>
		</g>
		<g>
			<defs>
				<path id="SVGID_7_" d="M20.5,24c0-3.3,2.7-6,6-6h36c3.3,0,6,2.7,6,6v36c0,3.3-2.7,6-6,6h-36c-3.3,0-6-2.7-6-6V24z"/>
			</defs>
			<clipPath id="SVGID_8_">
				<use xlink:href="#SVGID_7_"  overflow="visible"/>
			</clipPath>
		</g>
	</g>
	<g>
		<g>
			<polygon id="SVGID_9_" fill="#FF6550" points="47.5,39 47.5,30 41.5,30 41.5,39 32.5,39 32.5,45 41.5,45 41.5,54 47.5,54 
				47.5,45 56.5,45 56.5,39 			"/>
		</g>
		<g>
			<defs>
				<polygon id="SVGID_10_" points="47.5,39 47.5,30 41.5,30 41.5,39 32.5,39 32.5,45 41.5,45 41.5,54 47.5,54 47.5,45 56.5,45 
					56.5,39 				"/>
			</defs>
			<clipPath id="SVGID_11_">
				<use xlink:href="#SVGID_10_"  overflow="visible"/>
			</clipPath>
			<g clip-path="url(#SVGID_11_)">
				<g>
					<defs>
						<rect id="SVGID_12_" x="-158.5" y="-158" width="1200" height="3500"/>
					</defs>
					<clipPath id="SVGID_13_">
						<use xlink:href="#SVGID_12_"  overflow="visible"/>
					</clipPath>
					<rect x="27.5" y="25" clip-path="url(#SVGID_13_)" fill="#FFFFFF" width="34" height="34"/>
				</g>
			</g>
		</g>
	</g>
</g>
</svg>
